<svg id="Layer_1" data-name="Layer 1" xmlns="http://www.w3.org/2000/svg" viewBox="0 0 2853.56 2778.42">
  <defs>
    <style>
      .cls-1 {
        fill: #fff;
      }

      .cls-2 {
        fill: #371a45;
      }

      .cls-3 {
        opacity: 0.25;
      }

      .cls-4 {
        opacity: 0.35;
      }

      .cls-5 {
        fill: #22a7f0;
      }

      .cls-6 {
        opacity: 0.5;
      }

      .cls-7 {
        fill: #111a28;
      }

      .cls-8 {
        opacity: 0.3;
      }

      .cls-9 {
        fill: #d8d8d8;
      }

      .cls-10 {
        opacity: 0.7;
      }

      .cls-11 {
        fill: #e5e9ec;
      }

      .cls-12 {
        fill: #db2c2c;
      }
    </style>
  </defs>
  <g>
    <path class="cls-1" d="M2919.42,2278.2v855.26A168.41,168.41,0,0,1,2751,3301.89H1971.78a168.42,168.42,0,0,1-168.44-168.43V2278.2a168.37,168.37,0,0,1,168.44-168.43H2751a168.28,168.28,0,0,1,168.39,168.43Z" transform="translate(-597.35 -682.03)"/>
    <path class="cls-2" d="M2737.32,3321.13H1985.45c-111,0-201.37-90.34-201.37-201.38V2291.87c0-111,90.33-201.37,201.37-201.37h751.87c111,0,201.38,90.33,201.38,201.37v827.88C2938.7,3230.79,2848.36,3321.13,2737.32,3321.13ZM1985.45,2129c-89.8,0-162.86,73.06-162.86,162.86v827.88c0,89.8,73.06,162.86,162.86,162.86h751.87c89.8,0,162.86-73.06,162.86-162.86V2291.87c0-89.8-73.06-162.86-162.86-162.86Z" transform="translate(-597.35 -682.03)"/>
    <path class="cls-1" d="M2030.12,2176.3S1634.89,2285,1576.3,3191.61h924.51L2446,2120.7Z" transform="translate(-597.35 -682.03)"/>
    <g class="cls-3">
      <path class="cls-2" d="M2500.81,3191.61H1576.32c8.94-138.47,118-110.23,177.75-248.07,179.8-414.56,728.21-114,728.21-114Z" transform="translate(-597.35 -682.03)"/>
    </g>
    <path class="cls-2" d="M2521.08,3210.87H1555.76l1.33-20.5c30.57-473.07,154.3-727.69,252.72-858,108.83-144.07,210.91-173.47,215.2-174.65l2.55-.52,436.63-58.37Zm-924.17-38.51h883.63l-52.67-1029.8-393.62,52.62c-10.71,3.49-100.86,36-196.29,163.86C1745.2,2483.37,1628.81,2725,1596.91,3172.36Z" transform="translate(-597.35 -682.03)"/>
    <path class="cls-1" d="M3230.33,3084.93c-59.22,125.33-177.12,33.92-177.12,33.92s-4.4,3.48-38.33,10.78c-193.06,41.67-320.31-70.88-320.31-70.88s-42.65,39.53-84.55,38.38c-35.93-1-60.64-16.7-73.06-40.65-23-44.39-5.39-81.21,32.23-141.81,35.58-57.39,139.45-117.41,289.59-98.71v-.09c8.46-104.5-125-221.51-227.25-295.06-62.2-44.74-112.78-73.46-112.78-73.46l161.31-378.23C3248.4,2544.85,3291.59,2955.27,3230.33,3084.93Z" transform="translate(-597.35 -682.03)"/>
    <g class="cls-3">
      <path class="cls-2" d="M2858.78,2815.87c8.46-104.5-125-221.51-227.25-295.06-16.52-67.14-2.45-123.06,79.52-136.73,65.88-11,158.49,169.77,210.59,269.24,63.26,120.79,115.46,225.94,116.17,227.82C3035.4,2879.36,2968.84,2830,2858.78,2815.87Z" transform="translate(-597.35 -682.03)"/>
    </g>
    <g class="cls-3">
      <path class="cls-2" d="M3251.17,2967.21c.4,50.4-7.89,90.33-20.84,117.72-59.22,125.33-177.12,33.92-177.12,33.92s-4.4,3.48-38.33,10.78c-193.06,41.67-320.31-70.88-320.31-70.88s-42.65,39.53-84.55,38.38c-35.93-1-60.64-16.7-73.06-40.65-16.43-31.66-12.16-59.44,5.25-94.79,11.53,5.87,25.47,9.3,41.63,9.75,41.9,1.15,84.55-38.43,84.55-38.43s127.25,112.56,320.31,70.93c33.92-7.35,38.29-10.78,38.29-10.78S3167.1,3066.09,3251.17,2967.21Z" transform="translate(-597.35 -682.03)"/>
    </g>
    <path class="cls-2" d="M3140.91,3170.28c-39,0-74.2-19.35-90.3-29.77-6.69,2.09-16.64,4.71-31.66,7.95-166.93,36-286-36.93-324.19-65-17.62,13.2-51,34.12-85.24,33-41.33-1.13-73.17-19.26-89.66-51-28.31-54.61-5.33-99.15,32.95-160.87,38.59-62.14,143.58-120.86,286.44-109.86-13.78-124.77-239.44-279.14-330-330.52a19.26,19.26,0,0,1,19-33.51c14.88,8.44,364.27,208.65,349.74,386.91l-1.63,20-19.94-2.48c-137.23-17.06-236.6,34.56-270.87,89.74-38.25,61.67-48.76,89.5-31.49,122.82,9.89,19.06,29.44,29.53,56.52,30.27,27.78.78,60.58-23.78,70.92-33.29l12.79-11.78,13,11.5c1.18,1,122.87,105.45,303.51,66.49,21.31-4.6,29.6-7.41,32.12-8.38l10.19-8,11.85,9.19c.44.35,48.68,36.84,92.56,26.2,22.67-5.49,41.29-23.37,55.37-53.15,27.33-57.86,33.41-187.51-39.4-362.5-60.27-144.85-196.95-371.78-505.83-630.33a19.26,19.26,0,0,1,24.71-29.54c314.86,263.55,454.76,496.26,516.68,645.07,77.58,186.44,70.84,325.65,38.66,393.75-19.34,40.93-46.71,65.89-81.36,74.19A109.31,109.31,0,0,1,3140.91,3170.28Z" transform="translate(-597.35 -682.03)"/>
    <path class="cls-1" d="M1932.85,2400.8C1855.64,2742.91,1815,3261.31,1815,3261.31H2907.77s-40.64-518.4-117.85-860.51c0,0-183.82-360.8-428.53-360.8S1932.85,2400.8,1932.85,2400.8Z" transform="translate(-597.35 -682.03)"/>
    <g class="cls-3">
      <path class="cls-2" d="M2907.75,3261.29H1815s11.48-146.53,33.83-335.22H2873.92C2896.27,3114.76,2907.75,3261.29,2907.75,3261.29Z" transform="translate(-597.35 -682.03)"/>
    </g>
    <path class="cls-2" d="M1951.63,2405c-15.56,70.19-28.59,141.12-40.42,212.29-11.62,71.22-21.77,142.74-31.21,214.37q-13.93,107.48-25.3,215.34c-7.6,71.85-14.62,143.93-20.5,215.77l-19.2-20.76H2907.77l-19.2,20.76L2877.7,3155l-11.53-107.8c-7.64-71.87-16.39-143.61-25.3-215.29-4.65-35.81-9.12-71.66-14.24-107.39-4.72-35.81-10.11-71.48-15.45-107.17-11.33-71.29-23.14-142.24-30.65-214.47v-.08a9.69,9.69,0,0,1,18.8-4.16c23.86,69.2,38.23,140.76,50.64,212.36s23.19,143.48,32.92,215.45,17.68,144.12,25.4,216.28c3.93,36.08,7.16,72.22,10.28,108.38s6.12,72.27,8.41,108.65l1.31,20.76H1794.1l1.7-20.76c5.94-72.53,13-144.63,20.6-216.83s16.07-144.24,25.4-216.24c9.49-72,19.7-143.88,31.4-215.63,11.92-71.72,25.06-143.3,40.86-214.54a19.26,19.26,0,0,1,37.61,8.34Z" transform="translate(-597.35 -682.03)"/>
    <g>
      <path class="cls-1" d="M2116.67,2953.15c-66.58,28-169.63,22.14-239.88,13.31-42.14-5.3-71.71-45.68-65.51-89.28h0c5.67-39.79,39.39-68.73,78.08-66.84,65.71,3.19,164.27,4.69,226.69-9.69" transform="translate(-597.35 -682.03)"/>
      <g class="cls-3">
        <path class="cls-2" d="M2116.69,2953.14c-66.58,28-169.67,22.17-239.91,13.31-42.11-5.26-71.7-45.66-65.51-89.29a78.69,78.69,0,0,1,8.29-25.82c11.21,21.56,32,37.31,57.22,40.5,70.14,8.8,173,14.68,239.62-13.22Z" transform="translate(-597.35 -682.03)"/>
      </g>
      <path class="cls-2" d="M1984.26,2993c-38.62,0-77-3.3-109.87-7.43a93.38,93.38,0,0,1-62.88-36.48,100.3,100.3,0,0,1-19.29-74.63c7.1-49.89,49.07-85.67,98.08-83.36,96.58,4.7,175.22,1.43,221.43-9.22,9.51-2.17,33.12-2.54,47.26,41.24,15.86,49.15,12.57,127.84-34.85,147.78h0C2084.8,2987.44,2034.33,2993,1984.26,2993Zm-98.48-163.49c-27.7,0-51.28,21.22-55.43,50.38a60.82,60.82,0,0,0,11.77,45.83,55.14,55.14,0,0,0,37.07,21.63c100.07,12.58,181.77,8.33,230-11.95h0c9.12-3.83,15.87-17.13,18.53-36.48,4.85-35.24-5.1-69.11-11.87-78.5-63.56,13.58-158.35,12.51-227.45,9.15Q1887.1,2829.51,1885.78,2829.51Zm230.9,123.64h0Z" transform="translate(-597.35 -682.03)"/>
      <path class="cls-1" d="M2626,2953.15c66.58,28,169.63,22.14,239.88,13.31,42.14-5.3,71.72-45.68,65.51-89.28h0c-5.66-39.79-39.39-68.73-78.08-66.84-65.71,3.19-164.27,4.69-226.69-9.69" transform="translate(-597.35 -682.03)"/>
      <g class="cls-4">
        <path class="cls-2" d="M2865.88,2966.45c-70.29,8.86-173.33,14.68-239.91-13.31l.29-74.36c66.58,27.89,169.43,22,239.62,13.21,25.25-3.19,46.06-19,57.27-40.6a80.36,80.36,0,0,1,8.24,25.77C2937.58,2920.79,2908,2961.19,2865.88,2966.45Z" transform="translate(-597.35 -682.03)"/>
      </g>
      <path class="cls-2" d="M2758.39,2993c-50.07,0-100.53-5.55-139.87-22.09h0c-47.42-19.94-50.71-98.63-34.85-147.78,14.14-43.78,37.76-43.42,47.26-41.24,46.2,10.65,124.83,13.92,221.43,9.22,49-2.35,91,33.47,98.08,83.36a100.37,100.37,0,0,1-19.3,74.64,93.34,93.34,0,0,1-62.86,36.47C2835.41,2989.7,2797,2993,2758.39,2993Zm-124.95-57.6c48.25,20.29,129.94,24.53,230,11.95a55.1,55.1,0,0,0,37.06-21.63,60.78,60.78,0,0,0,11.78-45.83c-4.28-30.09-29.31-51.73-58.07-50.32-69.1,3.37-163.88,4.43-227.45-9.15-6.77,9.39-16.72,43.26-11.87,78.5,2.66,19.35,9.42,32.65,18.53,36.48Z" transform="translate(-597.35 -682.03)"/>
      <path class="cls-1" d="M2651.7,2750.25v244.4c0,45.36-35.73,82.46-79.35,82.46H2139c-43.67,0-79.35-37.1-79.35-82.46v-244.4c0-45.31,35.68-82.41,79.35-82.41h433.38c34.85,0,64.68,23.69,75.26,56.34A85.24,85.24,0,0,1,2651.7,2750.25Z" transform="translate(-597.35 -682.03)"/>
      <g class="cls-3">
        <path class="cls-2" d="M2651.7,2750.25v244.4c0,45.36-35.73,82.46-79.35,82.46H2139c-43.67,0-79.35-37.1-79.35-82.46v-82.26c74.77,43,222.9,107.52,371.57,54.26,72.62-26,155.89-115.26,155.89-115.26s3.21,93.62,16.58,92.15c37.19-4.11,36.92-193.53,44-219.36A85.24,85.24,0,0,1,2651.7,2750.25Z" transform="translate(-597.35 -682.03)"/>
      </g>
      <path class="cls-2" d="M2568.86,3096.34H2142.43a102.2,102.2,0,0,1-102.09-102.09V2750.67a102.2,102.2,0,0,1,102.09-102.09h426.43A102.2,102.2,0,0,1,2671,2750.67v243.58A102.2,102.2,0,0,1,2568.86,3096.34ZM2142.43,2687.1a63.64,63.64,0,0,0-63.58,63.57v243.58a63.65,63.65,0,0,0,63.58,63.58h426.43a63.65,63.65,0,0,0,63.58-63.58V2750.67a63.64,63.64,0,0,0-63.58-63.57Z" transform="translate(-597.35 -682.03)"/>
      <ellipse class="cls-5" cx="1911.83" cy="2190.43" rx="68.44" ry="71.07"/>
      <path class="cls-1" d="M2577.63,2872.48a73.47,73.47,0,0,1-1.34,14.11c-6.33-32.55-34-57-67.12-57s-60.8,24.49-67.08,57a72.68,72.68,0,0,1-1.34-14.11c0-39.25,30.62-71.1,68.42-71.1S2577.63,2833.23,2577.63,2872.48Z" transform="translate(-597.35 -682.03)"/>
      <g class="cls-4">
        <path class="cls-2" d="M2577.61,2872.45c0,39.28-30.66,71.07-68.43,71.07s-68.44-31.79-68.44-71.07a73.86,73.86,0,0,1,2.49-19c8,30,34.56,52,65.95,52s57.9-22,66-52A74.3,74.3,0,0,1,2577.61,2872.45Z" transform="translate(-597.35 -682.03)"/>
      </g>
      <path class="cls-2" d="M2509.18,2958c-45.7,0-82.89-38.36-82.89-85.52s37.19-85.51,82.89-85.51,82.88,38.36,82.88,85.51S2554.87,2958,2509.18,2958Zm0-142.15c-29.78,0-54,25.41-54,56.63s24.22,56.63,54,56.63,54-25.4,54-56.63S2539,2815.83,2509.18,2815.83Z" transform="translate(-597.35 -682.03)"/>
      <path class="cls-2" d="M2315.23,3096.34a19.25,19.25,0,0,1-19.25-19.25V2952c0-24.92-11.38-48.69-30.44-63.59l-11-8.61c-28.32-22.14-45.23-57.25-45.23-93.93v-118a19.26,19.26,0,1,1,38.51,0v118c0,24.92,11.38,48.69,30.44,63.59l11,8.6c28.32,22.14,45.23,57.26,45.23,93.94v125.09A19.25,19.25,0,0,1,2315.23,3096.34Z" transform="translate(-597.35 -682.03)"/>
    </g>
    <g class="cls-3">
      <path class="cls-2" d="M2899.74,2199.08c-139.85,141.72-331.84,227.92-542.21,224.8-207.62-3.07-394.17-92.56-528.59-235a168.24,168.24,0,0,1,142.84-79.12H2751A168.32,168.32,0,0,1,2899.74,2199.08Z" transform="translate(-597.35 -682.03)"/>
    </g>
    <g>
      <g>
        <path class="cls-1" d="M3088.1,1832.2h0c-8.66-.91-14.85-8.93-13.83-17.9l53.25-468.13c1-9,8.87-15.52,17.52-14.6h0c90.84,9.59,155.79,93.69,145.08,187.86L3272,1679.05C3261.25,1773.22,3178.93,1841.78,3088.1,1832.2Z" transform="translate(-597.35 -682.03)"/>
        <path class="cls-2" d="M3105,1836.54a161.67,161.67,0,0,1-17.24-.91h0a18.67,18.67,0,0,1-12.7-7,19.79,19.79,0,0,1-4.2-14.76l53.24-468.13c1.24-10.85,10.85-18.77,21.33-17.65,43.71,4.61,83.14,26.29,111,61,29.36,36.6,42.54,83,37.13,130.66l-18.16,159.63C3265.17,1769.34,3190.54,1836.54,3105,1836.54Zm38.45-501.61a12.85,12.85,0,0,0-12.47,11.62l-53.25,468.13a13,13,0,0,0,2.73,9.65,11.81,11.81,0,0,0,8,4.42h0c88.81,9.36,169.58-58,180.06-150.09L3286.68,1519c5.21-45.82-7.45-90.4-35.65-125.54-26.72-33.3-64.49-54.07-106.35-58.49C3144.26,1335,3143.84,1334.93,3143.43,1334.93Z" transform="translate(-597.35 -682.03)"/>
      </g>
      <g class="cls-3">
        <path class="cls-2" d="M3280.47,1604.2l-8.5,74.87c-10.72,94.13-93,162.71-183.88,153.16-8.66-.91-14.84-9-13.83-17.94l14.12-124.46a15.61,15.61,0,0,0,13.16,11.15l10.71,1.1C3184,1709.67,3250.53,1668.42,3280.47,1604.2Z" transform="translate(-597.35 -682.03)"/>
      </g>
      <path class="cls-2" d="M3105,1852.34a177.34,177.34,0,0,1-18.9-1h0a34.37,34.37,0,0,1-23.36-12.79,35.51,35.51,0,0,1-7.58-26.44L3108.38,1344c2.22-19.43,19.54-33.61,38.69-31.57,47.93,5.06,91.14,28.8,121.68,66.86,32,39.9,46.4,90.45,40.5,142.32l-18.16,159.64C3280,1779.15,3198.45,1852.34,3105,1852.34Zm-11.22-39c78.69,6.29,149.71-54.22,159.06-136.51L3271,1517.24c4.73-41.6-6.73-82-32.27-113.87-23.35-29.1-56.05-47.57-92.37-52.27Z" transform="translate(-597.35 -682.03)"/>
      <g>
        <path class="cls-1" d="M1654.55,1174.24h0c8.66.91,14.85,8.93,13.83,17.9l-53.25,468.14c-1,9-8.87,15.51-17.52,14.59h0c-90.84-9.58-155.79-93.69-145.08-187.86l18.16-159.63C1481.4,1233.21,1563.72,1164.65,1654.55,1174.24Z" transform="translate(-597.35 -682.03)"/>
        <path class="cls-2" d="M1599.22,1678.42a18.92,18.92,0,0,1-2-.11c-43.71-4.61-83.14-26.29-111-61-29.36-36.59-42.54-83-37.12-130.65L1467.25,1327c10.91-95.9,95.14-166,187.66-156.19h0a18.71,18.71,0,0,1,12.7,7,19.85,19.85,0,0,1,4.21,14.76l-53.25,468.14A19.8,19.8,0,0,1,1599.22,1678.42Zm38.45-501.61c-82.1,0-153.71,64.57-163.54,151L1456,1487.4c-5.21,45.82,7.45,90.4,35.65,125.54,26.71,33.3,64.48,54.07,106.34,58.49,6.85.71,12.92-4.47,13.73-11.55l53.25-468.13a12.92,12.92,0,0,0-2.73-9.65,11.81,11.81,0,0,0-8-4.42h0A156,156,0,0,0,1637.67,1176.81Z" transform="translate(-597.35 -682.03)"/>
      </g>
      <g class="cls-3">
        <path class="cls-2" d="M1629.94,1530.41l-14.79,129.87c-1,9-8.9,15.5-17.56,14.6-47.67-5.06-88.26-30.62-114.48-67.43-23.69-33.24-35.64-75.7-30.56-120.41l7.64-67.26c19.08,61.73,71.85,108.91,138.44,116l16.48,1.74A16,16,0,0,0,1629.94,1530.41Z" transform="translate(-597.35 -682.03)"/>
      </g>
      <path class="cls-2" d="M1599.22,1694.22a34.44,34.44,0,0,1-3.64-.2c-47.93-5.06-91.15-28.8-121.68-66.86-32-39.9-46.4-90.45-40.5-142.32l18.15-159.64c11.89-104.48,103.8-180.84,205-170.11a34.35,34.35,0,0,1,23.36,12.79,35.51,35.51,0,0,1,7.58,26.44l-53.24,468.13C1632.2,1680.64,1616.86,1694.22,1599.22,1694.22Zm38.45-501.62c-74.19,0-138.93,58.6-147.85,137l-18.15,159.63c-4.73,41.6,6.73,82,32.27,113.87,23.35,29.1,56,47.58,92.37,52.27l52.58-462.28C1645.14,1192.75,1641.38,1192.6,1637.67,1192.6Z" transform="translate(-597.35 -682.03)"/>
      <g>
        <ellipse class="cls-1" cx="2371.42" cy="1503.23" rx="803.22" ry="773.42" transform="translate(-204.79 2813.04) rotate(-77.56)"/>
        <path class="cls-2" d="M2359.47,2308.62a751.49,751.49,0,0,1-133.76-12c-198.82-35.95-372.67-148.79-489.55-317.76-123.32-178.27-169.23-396.27-129.27-613.84,80.35-437.46,488.66-731.33,910.23-655.14,198.82,35.94,372.68,148.79,489.56,317.75,123.32,178.28,169.22,396.28,129.26,613.84C3064.15,2032.34,2730.45,2308.62,2359.47,2308.62Zm23.88-1603.87c-367.71,0-698.47,273.92-769.65,661.5-39.62,215.74,5.89,431.9,128.15,608.66,115.83,167.44,288.1,279.26,485.09,314.88,417.8,75.53,822.53-215.87,902.2-649.59,39.62-215.74-5.89-431.9-128.15-608.65-115.83-167.44-288.1-279.27-485.1-314.89A745.09,745.09,0,0,0,2383.35,704.75Z" transform="translate(-597.35 -682.03)"/>
      </g>
      <g class="cls-4">
        <path class="cls-2" d="M3145.33,1530.15a826.23,826.23,0,0,1-12.78,110.69c-80.18,436.26-485.89,728.33-906.23,652.38s-696.14-491.32-616.05-927.6c2.29-12.54,4.88-25,7.73-37.31-19.31,393.83,244.22,747.37,628.83,816.91C2655.08,2219,3049.46,1945.63,3145.33,1530.15Z" transform="translate(-597.35 -682.03)"/>
      </g>
      <path class="cls-2" d="M2359.47,2324.43a767.31,767.31,0,0,1-136.57-12.29c-203-36.69-380.45-151.87-499.73-324.31-125.72-181.75-172.53-404-131.81-625.68,81.91-446,498.45-745.59,928.57-667.84,203,36.7,380.46,151.87,499.74,324.31,125.72,181.76,172.53,404,131.81,625.68C3078.29,2042.8,2737.93,2324.43,2359.47,2324.43Zm23.88-1603.88c-360.26,0-684.32,268.56-754.11,648.56-38.86,211.58,5.75,423.53,125.6,596.81,113.42,164,282.08,273.46,474.92,308.32a729,729,0,0,0,129.71,11.67c360.27,0,684.33-268.57,754.13-648.56,38.86-211.59-5.75-423.54-125.61-596.81-113.41-164-282.08-273.47-474.91-308.33A729.22,729.22,0,0,0,2383.35,720.55Z" transform="translate(-597.35 -682.03)"/>
      <path class="cls-2" d="M3126.38,1660.67c-26.14,155-98.89,290.87-201.88,396.27-77.22,79-359.09,193.13-675.13,144.13-293-45.44-531.93-251.13-579-350.61a736.56,736.56,0,0,1-60.91-439.52c69.17-410.11,437.41-524.22,856.32-455.25S3195.55,1250.57,3126.38,1660.67Z" transform="translate(-597.35 -682.03)"/>
      <path class="cls-2" d="M2404.44,2228a1026.12,1026.12,0,0,1-157.37-12.06c-167.4-26-303.33-99.95-387.88-157.46-95.85-65.19-175.31-144.3-202.42-201.55a751,751,0,0,1-62.15-448.44c33.56-199,136.34-339.74,305.48-418.38,148.27-68.94,344.71-85.95,568.08-49.17,274.38,45.17,478,151,588.79,306.16,82.87,116,111.2,256,84.2,416.12h0c-25.81,153-97,292.79-206,404.25-45.27,46.33-142.91,93.87-254.82,124.07A1066.92,1066.92,0,0,1,2404.44,2228ZM2248,951.93c-128.25,0-241.9,21.94-335.23,65.33-159.64,74.23-256.72,207.52-288.55,396.17A721.18,721.18,0,0,0,1683.88,1844c45.34,95.73,280.3,297.62,567.79,342.21,318.54,49.39,592.59-68.67,662.1-139.8,104.63-107.06,173-241.33,197.82-388.27h0c25.62-151.94-1-284.4-79-393.69-106.07-148.49-302.91-250.15-569.24-294C2388,958.09,2315.94,951.93,2248,951.93Z" transform="translate(-597.35 -682.03)"/>
      <g class="cls-6">
        <ellipse class="cls-1" cx="2889.27" cy="1564.38" rx="142.07" ry="99.23" transform="translate(-125.8 3107.16) rotate(-71.05)"/>
      </g>
      <g class="cls-6">
        <ellipse class="cls-1" cx="2722.55" cy="1822.27" rx="65.11" ry="54.03" transform="translate(-668.06 2852.15) rotate(-65.3)"/>
      </g>
      <g class="cls-4">
        <path class="cls-7" d="M3043.39,1253.8c77.24,107.07,110.74,242.13,83,406.85-26.14,155-98.91,290.89-201.85,396.29-77.23,79-359.13,193.12-675.17,144.15-111.59-17.27-215.29-57.81-303.59-106.93,389.86,51.61,733.47-88.85,829.22-186.85,130.73-133.76,223.06-306.26,256.2-502.92A842.83,842.83,0,0,0,3043.39,1253.8Z" transform="translate(-597.35 -682.03)"/>
      </g>
      <path class="cls-2" d="M3121.74,1309.53a19.12,19.12,0,0,1-14.84-7l-.35-.44-1.35-1.74-.94-2c-97.08-208.35-327.43-356.61-632-406.76-306.31-50.41-573.29,19.58-732.46,192l-1.2,1.18a19.26,19.26,0,0,1-26.75-27.69C1880,875.22,2159.39,801,2478.52,853.57c317.12,52.21,557.83,208.25,660.47,428.11a19.28,19.28,0,0,1-17.25,27.85Z" transform="translate(-597.35 -682.03)"/>
      <g class="cls-6">
        <path class="cls-1" d="M1738.61,1683s-54.18-424.72,183.14-551.35,539.53-76.21,529.06-57.25c0,0-348.86,29-526.12,282C1788,1551.39,1738.61,1683,1738.61,1683Z" transform="translate(-597.35 -682.03)"/>
      </g>
    </g>
    <path class="cls-2" d="M3445.72,3156.39c0,144.18-585.17,304.06-1421.32,304.06S603,3300.57,603,3156.39Z" transform="translate(-597.35 -682.03)"/>
    <path class="cls-2" d="M603,3149.63c59.22-10.44,118.44-13.21,177.67-14.32,59.22-1.45,118.44-.68,177.67.11l88.83.64,88.83,0H3090.39l88.83,0c29.61,0,59.22-.91,88.83-1.34s59.23.24,88.84,1.94c14.8,1,29.61,2.31,44.42,4.44s29.61,4.54,44.41,8.52a7,7,0,0,1,0,13.53c-14.8,4-29.61,6.43-44.41,8.51s-29.62,3.47-44.42,4.44q-44.41,2.55-88.84,1.94c-29.61-.42-59.22-1.36-88.83-1.34l-88.83,0H1136l-88.83,0-88.83.63c-59.23.79-118.45,1.56-177.67.11-59.23-1.11-118.45-3.88-177.67-14.31a6.87,6.87,0,0,1,0-13.53Z" transform="translate(-597.35 -682.03)"/>
    <path class="cls-1" d="M2858.79,2816c-150.16-18.67-254,41.34-289.61,98.7-37.61,60.62-55.24,97.44-32.22,141.84,12.41,23.92,37.15,39.66,73.08,40.65,41.88,1.15,84.52-38.4,84.52-38.4s127.26,112.56,320.33,70.89c33.9-7.31,38.31-10.76,38.31-10.76l18.91-87.71s26.31-113.62-64.75-167.93C2931.1,2817.76,2858.79,2816,2858.79,2816Z" transform="translate(-597.35 -682.03)"/>
    <path class="cls-2" d="M2928.76,3158.24c-119.29,0-203.09-52.08-234-74.82-17.62,13.2-51,34.12-85.24,33-41.33-1.13-73.17-19.26-89.66-51-28.31-54.61-5.33-99.15,32.95-160.87,40.54-65.27,154.32-126.8,308.36-107.65a19.26,19.26,0,0,1-4.76,38.22c-137.23-17.06-236.6,34.56-270.87,89.74-38.25,61.67-48.76,89.5-31.49,122.82,9.89,19.06,29.44,29.53,56.52,30.27,27.78.78,60.58-23.78,70.92-33.29l12.79-11.78,13,11.5c1.18,1,122.87,105.45,303.51,66.49,23.63-5.1,31.25-8,32.75-8.63a19.26,19.26,0,0,1,21.48,31.86c-2.55,2-7.88,6.17-46.11,14.42A426.76,426.76,0,0,1,2928.76,3158.24Zm112.58-54.55v0Zm0,0Zm0,0Z" transform="translate(-597.35 -682.03)"/>
    <path class="cls-2" d="M2859.83,2796.72c3.34.1,5.75.18,8.49.4s5.29.44,7.88.74c5.22.59,10.31,1.38,15.42,2.27,10.15,1.87,20.19,4.18,30,7s19.56,6.1,29.08,9.8c4.74,1.92,9.5,3.73,14.19,5.75l13.86,6.45a379.92,379.92,0,0,1,52.58,30.62c8.45,5.55,16.32,11.95,24.2,18.21s15.17,13.27,22.51,20.07a9.65,9.65,0,0,1-11.21,15.53l-.7-.39c-8.47-4.67-16.38-10-24.81-14.48s-16.61-9.25-25.23-13.24c-16.82-8.66-34.3-15.77-51.78-22.48a553.55,553.55,0,0,0-53.41-16.62c-9-2.44-18-4.41-27-6.39-4.5-.83-9-1.92-13.46-2.62-2.24-.43-4.46-.85-6.64-1.18l-6.09-1-1.64-.27a19.23,19.23,0,0,1,3.72-38.19Z" transform="translate(-597.35 -682.03)"/>
    <path class="cls-2" d="M2675.3,3048.65c.61-7.79,1.55-14.22,2.73-21.16s2.51-13.54,4.11-20.23a297.58,297.58,0,0,1,12.25-39.35,222.63,222.63,0,0,1,19-36.84,150.11,150.11,0,0,1,27.85-31,7.6,7.6,0,0,1,10.58,10.85l-.29.33a132.14,132.14,0,0,0-19.86,30.24,197.92,197.92,0,0,0-11.73,34.62,266.3,266.3,0,0,0-5.57,36.44c-.53,6.13-.85,12.29-.94,18.4s0,12.53.36,17.73a19.32,19.32,0,0,1-38.52,3A23,23,0,0,1,2675.3,3048.65Z" transform="translate(-597.35 -682.03)"/>
    <path class="cls-2" d="M3034,3117.08c2.15-11,4.62-21.12,7.41-31.54s5.9-20.6,9.5-30.77a222.65,222.65,0,0,1,13-30.13,98.49,98.49,0,0,1,9.33-14.42c3.69-4.59,8.09-9.19,14.29-12.32a7,7,0,0,1,7.6,11.54l-.63.52c-5.46,4.56-9.38,13.6-12.12,22.56a200.69,200.69,0,0,0-6,28.65c-1.4,9.82-2.37,19.78-3,29.77s-1,20.22-1,29.72a19.36,19.36,0,1,1-38.71.27A20.43,20.43,0,0,1,3034,3117.08Z" transform="translate(-597.35 -682.03)"/>
    <rect class="cls-9" x="1569.59" y="2394.73" width="903.01" height="79.63"/>
    <path class="cls-2" d="M3070,3175.65h-903a19.26,19.26,0,0,1-19.26-19.26v-79.63a19.26,19.26,0,0,1,19.26-19.26h903a19.26,19.26,0,0,1,19.26,19.26v79.63A19.26,19.26,0,0,1,3070,3175.65Zm-883.75-38.52h864.49V3096H2186.2Z" transform="translate(-597.35 -682.03)"/>
    <rect class="cls-9" x="130.12" y="1148.82" width="1501.1" height="1036.34" rx="92.46"/>
    <g class="cls-10">
      <rect class="cls-1" x="130.12" y="1148.82" width="1501.1" height="1036.34" rx="92.46"/>
    </g>
    <path class="cls-9" d="M2184,1916.36v865.32a41,41,0,0,1-41,41H813a41,41,0,0,1-41-41V1916.36a41,41,0,0,1,41-41h1330.1A41,41,0,0,1,2184,1916.36Z" transform="translate(-597.35 -682.03)"/>
    <g class="cls-3">
      <path class="cls-2" d="M2184,1916.36v865.32a41,41,0,0,1-41,41H813S1810.47,2728.25,2184,1916.36Z" transform="translate(-597.35 -682.03)"/>
    </g>
    <path class="cls-2" d="M2136.1,2886.45H819.93a111.85,111.85,0,0,1-111.72-111.72V1923.31a111.85,111.85,0,0,1,111.72-111.72H2136.1a111.84,111.84,0,0,1,111.72,111.72v851.42A111.84,111.84,0,0,1,2136.1,2886.45ZM819.93,1850.11a73.29,73.29,0,0,0-73.21,73.2v851.42a73.3,73.3,0,0,0,73.21,73.21H2136.1a73.29,73.29,0,0,0,73.21-73.21V1923.31a73.29,73.29,0,0,0-73.21-73.2Z" transform="translate(-597.35 -682.03)"/>
    <path class="cls-9" d="M699.7,2412.93h361.92A50.08,50.08,0,0,1,1111.7,2463v0a11.35,11.35,0,0,1-11.35,11.35H661A11.35,11.35,0,0,1,649.62,2463v0a50.08,50.08,0,0,1,50.08-50.08Z"/>
    <g class="cls-3">
      <path class="cls-2" d="M699.7,2412.93h361.92A50.08,50.08,0,0,1,1111.7,2463v0a11.35,11.35,0,0,1-11.35,11.35H661A11.35,11.35,0,0,1,649.62,2463v0a50.08,50.08,0,0,1,50.08-50.08Z"/>
    </g>
    <path class="cls-9" d="M1597.91,2511.68a47.45,47.45,0,0,0-47.37-44.39H1405.48a47.45,47.45,0,0,0-47.37,44.39l-37.9,583.26h315.63ZM1478,2687.82a65.81,65.81,0,1,1,65.8-65.81A65.82,65.82,0,0,1,1478,2687.82Z" transform="translate(-597.35 -682.03)"/>
    <path class="cls-9" d="M1635.84,3094.94H1320.21l37.9-583.26a47.45,47.45,0,0,1,47.37-44.39h145.06a47.45,47.45,0,0,1,47.37,44.39Z" transform="translate(-597.35 -682.03)"/>
    <g class="cls-10">
      <path class="cls-1" d="M1635.84,3094.94H1320.21l37.9-583.26a47.45,47.45,0,0,1,47.37-44.39h145.06a47.45,47.45,0,0,1,47.37,44.39Z" transform="translate(-597.35 -682.03)"/>
    </g>
    <path class="cls-9" d="M1602.58,3063.78H1353.47l1.43-22,34.33-528.09a16.27,16.27,0,0,1,16.25-15.23h145.06a16.28,16.28,0,0,1,16.25,15.23l14.56,223.51Z" transform="translate(-597.35 -682.03)"/>
    <path class="cls-2" d="M1478,2694.81a72.8,72.8,0,1,1,72.8-72.8A72.89,72.89,0,0,1,1478,2694.81Zm0-112.63a39.84,39.84,0,1,0,39.84,39.83A39.88,39.88,0,0,0,1478,2582.18Z" transform="translate(-597.35 -682.03)"/>
    <g class="cls-3">
      <path class="cls-2" d="M1602.58,3063.78H1353.47l1.43-22c62.87-37.62,177.74-127.82,226.45-304.58Z" transform="translate(-597.35 -682.03)"/>
    </g>
    <path class="cls-2" d="M1635.85,3114.2H1320.22a19.25,19.25,0,0,1-19.22-20.51l37.89-583.25a66.83,66.83,0,0,1,66.59-62.4h145.06a66.84,66.84,0,0,1,66.59,62.39l37.93,583.26a19.25,19.25,0,0,1-19.21,20.51Zm-295.08-38.51h274.52l-36.6-562.76h0a28.25,28.25,0,0,0-28.15-26.37H1405.48a28.26,28.26,0,0,0-28.16,26.37Z" transform="translate(-597.35 -682.03)"/>
    <g>
      <path class="cls-11" d="M899.85,3221.19c3.38-.66,6.79-1.17,10.12-2,4.52-1.15,5.49-2.43,6-7.09.35-3.11.64-6.22,1-9.33,0-.24.42-.44.94-1,.65,3.14,1.17,6.08,1.87,9,1.28,5.34,2.79,6.6,8.44,6.94,3.11.19,6.23.15,9.51,1-3.21.91-6.43,1.8-9.63,2.74-5.65,1.65-6.37,2.57-6.68,8.51-.08,1.56,0,3.13,0,4.7a6.16,6.16,0,0,1-1.14,3.71c-1-3.53-2.07-7.06-3-10.61-.74-2.75-2.41-4.32-5.25-4.56-4-.35-8-.67-12.07-1Z" transform="translate(-597.35 -682.03)"/>
      <path class="cls-11" d="M1671.41,3216.6c3.43.17,6.87.48,10.3.46,4.67,0,5.92-1.06,7.54-5.46,1.07-2.93,2.09-5.89,3.18-8.82.09-.23.52-.33,1.15-.72-.12,3.2-.31,6.18-.32,9.16,0,5.49,1.14,7.07,6.54,8.75,3,.92,6,1.63,9,3.27-3.34.12-6.68.21-10,.36-5.88.27-6.8,1-8.51,6.68-.46,1.5-.74,3-1.16,4.56a6.14,6.14,0,0,1-2,3.34c-.14-3.68-.32-7.36-.4-11-.06-2.85-1.31-4.77-4-5.68-3.83-1.3-7.66-2.57-11.49-3.85Z" transform="translate(-597.35 -682.03)"/>
      <path class="cls-11" d="M2099.32,3319.7c3.3,1,6.58,2,9.93,2.79,4.54,1,6,.33,8.57-3.58,1.72-2.62,3.39-5.26,5.12-7.87.14-.2.58-.2,1.28-.43-.84,3.09-1.71,5.94-2.4,8.84-1.28,5.34-.5,7.14,4.37,10,2.69,1.58,5.49,3,8,5.24-3.27-.65-6.54-1.32-9.82-1.93-5.79-1.08-6.85-.59-9.82,4.56-.78,1.35-1.41,2.8-2.16,4.17a6.14,6.14,0,0,1-2.7,2.8c.7-3.62,1.36-7.24,2.13-10.84a5.53,5.53,0,0,0-2.62-6.44c-3.42-2.13-6.86-4.24-10.3-6.36Z" transform="translate(-597.35 -682.03)"/>
      <path class="cls-11" d="M2723.27,3202c4.15-.61,8.33-1,12.44-1.88,5.57-1.14,6.83-2.65,7.73-8.29.6-3.76,1.13-7.54,1.74-11.31.05-.29.54-.51,1.21-1.12.61,3.86,1.08,7.46,1.76,11,1.26,6.57,3,8.19,9.88,8.93,3.78.41,7.58.54,11.53,1.8-4,.93-7.93,1.83-11.89,2.79-7,1.7-7.9,2.78-8.62,10-.19,1.9-.16,3.82-.31,5.72a7.55,7.55,0,0,1-1.59,4.46c-1-4.37-2.12-8.72-3.08-13.1-.73-3.39-2.68-5.39-6.13-5.86-4.88-.65-9.76-1.27-14.64-1.9Z" transform="translate(-597.35 -682.03)"/>
      <path class="cls-11" d="M3032.32,3229.79c3.32-.89,6.69-1.64,9.95-2.71,4.43-1.46,5.32-2.81,5.52-7.49.13-3.13.2-6.25.34-9.38,0-.24.39-.47.88-1,.86,3.08,1.58,6,2.48,8.82,1.65,5.23,3.24,6.38,8.9,6.33,3.11,0,6.23-.28,9.56.38-3.14,1.13-6.28,2.24-9.41,3.4-5.52,2-6.18,3-6.08,8.95,0,1.57.23,3.13.3,4.69a6.21,6.21,0,0,1-.88,3.79c-1.26-3.46-2.56-6.9-3.75-10.38a5.55,5.55,0,0,0-5.56-4.19l-12.1-.16Z" transform="translate(-597.35 -682.03)"/>
      <path class="cls-11" d="M2421.76,3327.53c3.4-.5,6.83-.86,10.2-1.54,4.56-.94,5.6-2.18,6.34-6.8.49-3.09.92-6.19,1.43-9.28,0-.24.44-.42,1-.92.5,3.16.88,6.12,1.44,9.05,1,5.39,2.48,6.72,8.11,7.32,3.09.34,6.21.44,9.45,1.48-3.25.76-6.5,1.5-9.75,2.29-5.71,1.39-6.48,2.27-7.07,8.19-.15,1.56-.13,3.13-.25,4.69a6.17,6.17,0,0,1-1.31,3.66c-.85-3.58-1.74-7.15-2.52-10.75a5.54,5.54,0,0,0-5-4.8c-4-.53-8-1-12-1.56Z" transform="translate(-597.35 -682.03)"/>
      <path class="cls-11" d="M1992.47,3210.53c3.37-2.06,6.84-4,10.08-6.21,4.41-3,5-4.81,3.64-10-.87-3.49-1.8-6.95-2.66-10.44-.06-.27.28-.65.63-1.42,1.95,3.12,3.69,6.07,5.6,8.9,3.51,5.24,5.64,6,11.85,4.1,3.42-1,6.77-2.33,10.65-2.69-3.09,2.26-6.19,4.5-9.27,6.8-5.41,4-5.82,5.32-3.78,11.83.54,1.71,1.27,3.37,1.84,5.07a7.08,7.08,0,0,1,.26,4.45c-2.5-3.4-5-6.77-7.49-10.22-1.89-2.66-4.32-3.68-7.47-2.8-4.47,1.23-8.93,2.49-13.39,3.75Z" transform="translate(-597.35 -682.03)"/>
      <path class="cls-11" d="M1437.22,3297.13c3.4-.5,6.83-.85,10.2-1.54,4.57-.93,5.61-2.17,6.34-6.8.49-3.09.93-6.19,1.43-9.27,0-.24.44-.43,1-.92.5,3.16.88,6.12,1.44,9,1,5.39,2.49,6.72,8.11,7.33,3.1.33,6.22.44,9.46,1.48-3.25.76-6.51,1.49-9.75,2.28-5.72,1.39-6.49,2.28-7.07,8.19-.16,1.56-.14,3.13-.26,4.7a6.19,6.19,0,0,1-1.31,3.66c-.84-3.59-1.73-7.16-2.52-10.75a5.53,5.53,0,0,0-5-4.8c-4-.54-8-1.05-12-1.57Z" transform="translate(-597.35 -682.03)"/>
      <path class="cls-11" d="M1239.17,3208.14c6.25,0,12.51.33,18.74,0,8.46-.44,10.67-2.38,13.24-10.49,1.73-5.42,3.35-10.87,5.09-16.28.14-.42.9-.64,2-1.39,0,5.82-.08,11.24.14,16.65.39,10,2.63,12.75,12.57,15.36,5.48,1.44,11,2.48,16.59,5.22-6,.49-12.09.93-18.14,1.47-10.65.94-12.27,2.33-14.92,12.8-.7,2.75-1.09,5.59-1.73,8.36a11.26,11.26,0,0,1-3.35,6.22c-.55-6.67-1.18-13.33-1.61-20-.33-5.15-2.76-8.54-7.74-10-7-2-14.1-4-21.15-6.06Z" transform="translate(-597.35 -682.03)"/>
      <path class="cls-11" d="M1778.15,3316.76c6.06,1.1,12.09,2.47,18.19,3.23,8.28,1,10.76-.47,14.66-7.89,2.6-5,5.12-10,7.74-14.92.21-.39,1-.47,2.21-1-1,5.65-2,10.89-2.74,16.18-1.34,9.74.36,12.82,9.56,17.08,5.06,2.34,10.29,4.31,15.19,7.93-6-.58-11.89-1.19-17.85-1.71-10.5-.92-12.31.14-16.7,9.84-1.15,2.56-2,5.24-3.12,7.82a11.06,11.06,0,0,1-4.32,5.46c.62-6.57,1.16-13.14,1.89-19.69.57-5.06-1.2-8.76-5.79-11-6.48-3.2-13-6.36-19.47-9.53Z" transform="translate(-597.35 -682.03)"/>
      <path class="cls-11" d="M2303,3201c4.74-.49,9.52-.78,14.22-1.54,6.39-1,7.9-2.69,9.19-9.06.86-4.26,1.64-8.53,2.51-12.78.07-.33.64-.56,1.43-1.22.51,4.41.87,8.54,1.48,12.62,1.12,7.54,3.05,9.46,10.81,10.63,4.28.64,8.59,1,13,2.59-4.54.87-9.1,1.7-13.64,2.61-8,1.6-9.12,2.78-10.27,10.95-.31,2.15-.37,4.33-.63,6.49a8.55,8.55,0,0,1-2,5c-1-5-2-10-2.88-15-.68-3.89-2.8-6.26-6.7-6.94-5.51-1-11-1.91-16.55-2.86Z" transform="translate(-597.35 -682.03)"/>
      <path class="cls-11" d="M2643.34,3304c6.35.05,12.72.38,19.06.08,8.61-.42,10.85-2.38,13.51-10.62,1.77-5.5,3.44-11,5.24-16.53.14-.43.92-.65,2.06-1.41,0,5.92-.12,11.43.08,16.93.36,10.14,2.63,13,12.73,15.68,5.55,1.48,11.22,2.56,16.84,5.37-6.15.47-12.3.89-18.45,1.42-10.83.92-12.49,2.32-15.23,13-.72,2.8-1.13,5.68-1.79,8.5a11.42,11.42,0,0,1-3.43,6.31c-.53-6.78-1.15-13.55-1.56-20.34-.32-5.25-2.77-8.7-7.83-10.19-7.15-2.11-14.32-4.17-21.48-6.25C2643.17,3305.21,2643.26,3304.58,2643.34,3304Z" transform="translate(-597.35 -682.03)"/>
    </g>
    <path class="cls-2" d="M1697.71,3175.65H1258.33a30.64,30.64,0,0,1-30.61-30.61,69.42,69.42,0,0,1,69.34-69.34H1659a69.42,69.42,0,0,1,69.34,69.34A30.64,30.64,0,0,1,1697.71,3175.65Zm-430.45-38.52h421.5a30.86,30.86,0,0,0-29.79-22.91H1297.06A30.87,30.87,0,0,0,1267.26,3137.13Z" transform="translate(-597.35 -682.03)"/>
    <path class="cls-2" d="M3187.64,2717.45a19.11,19.11,0,0,1-9-2.27c-140.72-74.87-327.85-8.73-329.72-8a19.26,19.26,0,0,1-13.13-36.22c8.3-3,204.92-72.76,360.94,10.26a19.26,19.26,0,0,1-9.06,36.27Z" transform="translate(-597.35 -682.03)"/>
    <g>
      <path class="cls-1" d="M1443.86,2372.73c-13.2,0-23.33-10.35-24.08-24.6-.91-16.34-1.7-32.76-2.49-49.18l-.52-10.69h-.66c-10.61,0-17-6.44-21.32-12.05-2.64-3.41-5.27-6.84-7.93-10.33q-3.46,2.66-7,5.18a24.12,24.12,0,0,1-14.13,4.7,24.84,24.84,0,0,1-12.93-3.74c-9.38-5.54-13.85-16.45-10.79-26.5a30.64,30.64,0,0,1,8.7-13.69c2-1.83,4.07-3.52,6.15-5.12-1.29-1.68-2.56-3.35-3.83-5l-.7-1c-.22-.31-.43-.63-.67-.91-7.77-8.22-10.76-17.46-8.85-26.52l-55.11-17.83c-9-3.05-15.44-9.32-17.67-17.25s-.06-16.46,5.91-23.6c14.36-17.23,34.12-39.11,59.55-55.12,23.21-14.57,45.74-21.65,68.92-21.65,1.69,0,3.4,0,5.11.11a86.3,86.3,0,0,1,27.69,5.62L1441,2060c7.57-7.2,15.4-14.65,23.87-21.45,28.38-22.86,62-35.68,102.59-39.18,6.73-.59,13.58-.88,20.36-.88a256.72,256.72,0,0,1,64.12,8.39,68.11,68.11,0,0,1,8.66,3c1.08.44,2.17.88,3.27,1.27a12.15,12.15,0,0,1,5.43,3.89c.61.77,2.7,3.56,3.18,4.16a12.22,12.22,0,0,1,2.41,5.26c2.67,13.86,1.18,26.91-.27,39.53l-.22,1.86c-4,35.61-14.88,67.84-32.24,95.77a173.49,173.49,0,0,1-52.88,54.53c-4.7,3-9.45,6-14.19,8.9q-4.27,2.64-8.54,5.31c3,28.49-5.83,54.93-26.89,80.78-14.26,17.38-32.72,32.1-56.47,45-8.44,4.57-17.28,9-27.06,13.64a28.46,28.46,0,0,1-12.24,2.89Zm23.18-64A153.24,153.24,0,0,0,1494.2,2288c10.92-10.75,17.74-21.09,21.38-32.44l-50.26,19.53Q1466.19,2291.68,1467,2308.71Zm12.54-169.21a23.74,23.74,0,0,1,15.2,5.51,24.33,24.33,0,0,1,9.17,19.32,25.34,25.34,0,0,1-10.35,19.73q-20.44,15.72-41.09,31.49-12.88,9.85-25.77,19.73c47.76-14.65,83.59-29.35,115.43-47.32,15.74-8.89,27.78-17.47,37.88-27,12.25-11.66,22.28-26.34,30.55-44.79-2.1-2.67-4.19-5.42-6.28-8.16l-4-5.2c-13.48-17.67-26.9-35.25-40.46-52.8a149.85,149.85,0,0,0-33.31,8.84c-16.38,6.34-31.63,16.86-49.47,34.09a354.65,354.65,0,0,0-44.06,51c-11.39,16.06-22.55,32.75-33.34,48.89l-1.85,2.75,21.81-16.7q22-16.93,44.17-33.8A26.12,26.12,0,0,1,1479.58,2139.5Zm-111.76,10.28q15.81-21.48,31.34-42.66a56.12,56.12,0,0,0-10.05,1.78c-20.3,5.58-36.78,17.48-51.28,31.11Zm257.35-87.55q.72-5.37,1.11-10.63l-10.17-1.23Z" transform="translate(-597.35 -682.03)"/>
      <path class="cls-2" d="M1662.29,2064.51c1.42-12.45,3.07-25.05.63-37.71-1.09-1.38-2.09-2.78-3.18-4.16-3.61-1.3-7.12-3-10.87-3.94-26.41-6.82-53.19-9.52-80.39-7.18-35.47,3.06-68,14-96,36.55-10.14,8.13-19.38,17.32-28.84,26.23-2.54,2.42-4.49,3.42-8,1.79a72.52,72.52,0,0,0-26.58-6c-24.59-1.11-46.54,6.83-67,19.68-22.18,14-40.06,32.65-56.7,52.64-7.09,8.47-4.34,17.92,6.21,21.48,6.66,2.17,13.32,4.3,20,6.48q23.93,7.74,47.78,15.44a5.36,5.36,0,0,1-.07,1,4.94,4.94,0,0,1-.48,1c-6.64,8.53-5,16.43,2,23.84a33.74,33.74,0,0,1,2.06,2.7c3.66,4.82,7.41,9.69,11.29,14.71-5.3,4.09-10.51,7.57-15.12,11.77a18.85,18.85,0,0,0-5.25,8.24c-1.5,4.92,1,9.95,5.43,12.53,4.64,2.79,9.42,2.68,13.74-.44,5.48-3.9,10.72-8.12,16.3-12.39,5.27,6.95,10.26,13.51,15.26,20,5.75,7.39,9.7,8.65,18.6,6.19,1.62-.51,3.22-.85,5.13-1.32.14,1.9.28,3.43.36,4.86,1.13,23,2.18,46.05,3.44,69,.58,10.88,9.17,16,19,11.35,8.87-4.18,17.74-8.61,26.44-13.33,20.05-10.9,38.29-24.25,52.84-42,18.22-22.35,28.3-47.31,23.58-76.79a4.56,4.56,0,0,1,1.78-3.75c8.94-5.76,18.12-11.15,27.07-17a161,161,0,0,0,49.18-50.76C1649.08,2127.44,1658.62,2096.92,1662.29,2064.51Zm-289.88,99.56-57.13-18.61c20.27-21.54,41.72-40.35,70.6-48.29,12.48-3.43,26.91-3.14,35.42.32C1405.13,2119.56,1388.93,2141.63,1372.41,2164.07Zm154.91,94.66c-4.68,14.94-13.62,27.1-24.62,37.95-13.68,13.33-29.61,23.26-46.83,32.34q-1.55-31.74-3.14-62.13l77.08-29.95C1530.8,2244,1529.59,2251.46,1527.32,2258.73Zm96.14-141.64c-8.38,19.78-19.37,37.78-35,52.69-12.09,11.43-25.82,20.61-40.26,28.77-39.18,22.11-81.17,37.37-124.1,50.26-2.1.6-3.38.49-4.77-1.43-3-4.26-6.35-8.36-9.52-12.56a5.93,5.93,0,0,1-.59-1.39c1.1-.88,2.27-1.74,3.46-2.65,24.5-18.81,49.12-37.56,73.62-56.41,7.09-5.37,7.39-14.61.83-19.95-4.58-3.75-10.61-3.69-15.89.28q-22.11,16.86-44.16,33.79c-11,8.38-21.84,16.74-33.24,25.48-3.92-5.11-7.69-9.78-11.09-14.68-.58-.88,0-3.1.8-4.19,13.06-19.49,26-39.08,39.6-58.23a364.54,364.54,0,0,1,45.55-52.69c15.76-15.24,32.84-28.68,53.5-36.69a159.28,159.28,0,0,1,41-10.17c1.28-.19,3.14,1.1,4,2.28,14.35,18.56,28.54,37.13,42.75,55.76,4.27,5.53,8.48,11.19,12.88,16.66A4.42,4.42,0,0,1,1623.46,2117.09Zm8.51-25.94c-14.18-18.58-28-36.64-41.89-54.79,0-.42.14-.9.2-1.35,16.15,1.93,32.33,3.91,48.68,5.87A222,222,0,0,1,1632,2091.15Z" transform="translate(-597.35 -682.03)"/>
      <path class="cls-1" d="M1622.84,2112c-4.4-5.47-8.61-11.13-12.88-16.66-14.21-18.63-28.4-37.2-42.75-55.76-.9-1.18-2.76-2.47-4-2.28a159.28,159.28,0,0,0-41,10.17c-20.66,8-37.74,21.45-53.5,36.69a364.54,364.54,0,0,0-45.55,52.69c-13.59,19.15-26.54,38.74-39.6,58.23-.79,1.09-1.38,3.31-.8,4.19,3.4,4.9,7.17,9.57,11.09,14.68,11.4-8.74,22.28-17.1,33.24-25.48q22.07-16.93,44.16-33.79c5.28-4,11.31-4,15.89-.28,6.56,5.34,6.26,14.58-.83,19.95-24.5,18.85-49.12,37.6-73.62,56.41-1.19.91-2.36,1.77-3.46,2.65a5.93,5.93,0,0,0,.59,1.39c3.17,4.2,6.53,8.3,9.52,12.56,1.39,1.92,2.67,2,4.77,1.43,42.93-12.89,84.92-28.15,124.1-50.26,14.44-8.16,28.17-17.34,40.26-28.77,15.68-14.91,26.67-32.91,35-52.69A4.42,4.42,0,0,0,1622.84,2112Zm-43,28.36c-18.74,14.11-45.24,10.66-59.31-7.81a42.31,42.31,0,0,1,8-59.24c18.22-14,44.73-10.4,58.93,8.05C1601.48,2099.72,1598.06,2126.6,1579.84,2140.38Z" transform="translate(-597.35 -682.03)"/>
      <path class="cls-12" d="M1632,2091.13c-14.19-18.54-28-36.63-41.89-54.78,0-.43.14-.88.19-1.35,16.15,2,32.34,3.93,48.71,5.88C1638.67,2058.47,1636.05,2074.61,1632,2091.13Z" transform="translate(-597.35 -682.03)"/>
      <path class="cls-12" d="M1421.32,2097.5c-16.2,22.05-32.4,44.13-48.9,66.59-18.45-6-37.54-12.24-57.14-18.62,20.29-21.56,41.72-40.38,70.61-48.29C1398.36,2093.72,1412.77,2094,1421.32,2097.5Z" transform="translate(-597.35 -682.03)"/>
      <path class="cls-12" d="M1502.68,2296.68C1489,2310,1473.09,2320,1455.86,2329q-1.58-31.71-3.13-62.12c26-10.12,51.48-20,77.1-30,1,7.06-.25,14.52-2.5,21.82C1522.66,2273.69,1513.72,2285.84,1502.68,2296.68Z" transform="translate(-597.35 -682.03)"/>
      <path class="cls-2" d="M1587.43,2081.38c-14.2-18.45-40.71-22.07-58.93-8.05a42.31,42.31,0,0,0-8,59.24c14.07,18.47,40.57,21.92,59.31,7.81C1598.06,2126.6,1601.48,2099.72,1587.43,2081.38Zm-20.22,43.42a22.21,22.21,0,1,1,4.56-31.35A22.35,22.35,0,0,1,1567.21,2124.8Z" transform="translate(-597.35 -682.03)"/>
      <path class="cls-5" d="M1567.2,2124.8a22.21,22.21,0,1,1,4.55-31.36A22.36,22.36,0,0,1,1567.2,2124.8Z" transform="translate(-597.35 -682.03)"/>
    </g>
  </g>
</svg>
