<svg id="svg2" xmlns="http://www.w3.org/2000/svg" viewBox="0 0 366.17 453.32"><g id="layer1"><g id="g3089"><g id="g3865"><path id="path3867" d="M109.31,253.87c-3.32,3.93-6.16,8.48-11,10.72-5,3.37-11.1,4-16.4,6.77-6.39,1.35-9.34,7.69-13.49,12-2,3.07.43,3.68,1.12.35,2.62-5.46,5.83-12,2.67-18-1.84-4-4.2-8.15-3.51-12.79.16-7,3.43-13.26,7.25-18.9,2.08-2.64,4.58-8.65,7.7-8.11.11,4.82,4.41,7.66,7.15,11,3.57,3.49,7.91,6,12,8.78,2.19,2.54,7,4.13,7.28,7.41l-.72.74Z" transform="translate(-4.95 -10.36)" style="fill:#fc0"/><path id="path3869" d="M108.88,250.51c-3.22,4.63-5.63,10.48-11,13-2.77,1.28-5.89.69-8.7,1.85-5.86,1.92-10.66,6.25-14.46,11-4.14,2.53-3.56,8.12-6.35,11.61-.72.93-2.45,1.57-1.2-.08,2.51-4.1,7.84-6.43,8.59-11.54-.9-6.11-8.49-8.21-9.18-14.44-1.4-6.2-2.19-13.3,1.42-19.07,2.55-4.62,7.21-7.45,11.87-9.53,2.35-1,4.6-2.26,7-3.14,5.41-1.1,10.35,2.12,14.21,5.44a10.23,10.23,0,0,1,3.85,6c1,3.07,1.92,6.31,4,8.85Z" transform="translate(-4.95 -10.36)" style="fill:#ff0;opacity:0.5122950673103333;isolation:isolate"/><path id="path3871" d="M107.88,249.22c-2.37,3.09-4.1,7.18-8,8.58A25.88,25.88,0,0,1,93.25,260c-2.17.49-4.42.61-6.56,1.21-5,2-8.36,6.86-9.74,11.93-.31.58-.62,2,0,.56.71-1.8,1.84-3.76,1.35-5.75-1.14-4.76-5.62-8.15-5.92-13.21-1-3.42.83-6.92,3.3-9.21,2-2,4.52-3.31,6.71-5.07,1.91-1.4,4.54-2.79,6.85-1.44,2,1.44,3.69,3.37,5.67,4.89,1.84,1.3,3.5,3.21,5.72,3.77,2.06.19,4.31-1.07,6.23.09a2.94,2.94,0,0,1,1,1.42Z" transform="translate(-4.95 -10.36)" style="fill:red;opacity:0.5122950673103333;isolation:isolate"/><path id="path3873" d="M106.16,249.21c-2.66,3.36-4.76,7.69-9,9.26a53,53,0,0,1-9.66,2.26c-3.3.4-6.75,1.33-9,3.89a21.5,21.5,0,0,0-6.11,9.3c.72-2.19,1.94-4.18,2.4-6.46.58-1.89.16-3.7.75-5.66.51-3,1.59-6.51-.27-9.32-2.61-5.25,5.86-6.5,3.72-12-1-2.72-4.7-8.95-3-11.39,1.45-2.53-4.25-5.41-2.49-7.71,1.6-1.8,4.8-2.84,6.6-.76,2.45,2.49,4.74,5.15,7.13,7.7,4.93,5,9.06,10.85,15,14.64,2,1.58,2.66,4.15,4,6.22Z" transform="translate(-4.95 -10.36)" style="fill:#f60;opacity:0.5122950673103333;isolation:isolate"/><path id="path3875" d="M96.48,238.87c-1.36,2.58,1,5.07,1.31,7.61,1,2.61-1.07,4.69-2.44,6.64-1.83,3-5.68,2-8.59,2.68-2.89.87-4.21,4.25-4.94,6.89-1.71,2.62-3,6.23-6.58,6.64.16.24,4.84-2.34,3.93-4.74-1.1-2.46-5.12-3.19-4.1-6.66,0-3,1.66-5.71,2.61-8.53a33.89,33.89,0,0,1,6.91-9.75,28,28,0,0,1,7.85-3.43c2.55-.54,1.69,4.68,3.86,4.11.08-.48.08-1,.18-1.46Z" transform="translate(-4.95 -10.36)" style="fill:red"/></g><g id="g3853"><path id="path3855" d="M216.76,327.93c-2.6,4.44-5.95,8.63-6.45,13.95-1.52,5.82-.09,11.81-.93,17.72.86,6.47-4.14,11.37-6.79,16.7-2.22,2.95-3.61.82-.7-.94,4.28-4.29,9.41-9.5,16.05-8.49,4.43.39,9.09,1.25,13.23-.95,6.53-2.46,11.38-7.64,15.42-13.12,1.8-2.84,6.63-7.2,5.08-10-4.57,1.5-8.68-1.61-12.79-3.07-4.47-2.21-8.25-5.47-12.25-8.36-3.12-1.22-6.22-5.21-9.41-4.4l-.46.92Z" transform="translate(-4.95 -10.36)" style="fill:#fc0"/><path id="path3857" d="M220.07,327.22c-3.29,4.58-8,8.8-8.58,14.72-.29,3,1.3,5.78,1.14,8.81.15,6.17-2.34,12.14-5.6,17.32-1,4.74-6.48,6.05-8.84,9.85-.64,1-.67,2.83.48,1.1,3-3.73,3.45-9.53,8-11.94,6.06-1.18,10.57,5.28,16.67,3.85,6.31-.74,13.28-2.35,17.51-7.67,3.52-3.94,4.63-9.28,5-14.36.15-2.55.6-5.1.65-7.63-.76-5.47-5.45-9.06-9.86-11.59a10.25,10.25,0,0,0-6.95-1.64c-3.24,0-6.59.29-9.68-.82Z" transform="translate(-4.95 -10.36)" style="fill:#ff0;opacity:0.5122950673103333;isolation:isolate"/><path id="path3859" d="M221.62,327.73c-2.12,3.27-5.4,6.26-5.42,10.44a26.59,26.59,0,0,0,.09,7c.26,2.21.9,4.37,1,6.59-.16,5.41-3.68,10.16-8,13.15-.45.48-1.68,1.25-.54.17,1.46-1.27,2.93-3,5-3.19,4.88-.5,9.56,2.59,14.43,1.19,3.56-.17,6.25-3.08,7.59-6.17,1.18-2.56,1.62-5.37,2.55-8,.68-2.28,1.12-5.22-.93-6.94-2-1.45-4.39-2.36-6.49-3.72-1.84-1.31-4.19-2.24-5.46-4.14-.86-1.89-.43-4.42-2.16-5.85a2.91,2.91,0,0,0-1.67-.48Z" transform="translate(-4.95 -10.36)" style="fill:red;opacity:0.5122950673103333;isolation:isolate"/><path id="path3861" d="M222.21,329.36c-2.29,3.62-5.67,7-5.74,11.59a53.64,53.64,0,0,0,1.09,9.86c.72,3.25,1,6.81-.66,9.84a21.53,21.53,0,0,1-6.74,8.84c1.82-1.4,3.3-3.21,5.3-4.41,1.58-1.17,3.43-1.37,5.08-2.58,2.7-1.5,5.61-3.67,8.88-2.85,5.82.72,4.18-7.69,10.05-7.48,2.9,0,10,1.45,11.75-.94,1.9-2.21,6.52,2.21,8.1-.21,1.16-2.11,1.09-5.48-1.48-6.49-3.16-1.48-6.43-2.75-9.63-4.16-6.31-3-13.25-4.94-18.81-9.32-2.16-1.35-4.8-1.13-7.19-1.69Z" transform="translate(-4.95 -10.36)" style="fill:#f60;opacity:0.5122950673103333;isolation:isolate"/><path id="path3863" d="M235.18,335c-2,2.15-5.11.76-7.62,1.3-2.79-.08-4.06,2.57-5.45,4.51-2.22,2.72,0,6,.33,9,.14,3-2.61,5.38-4.86,7-1.89,2.49-4.87,4.92-4.06,8.41-.29-.06.59-5.34,3.16-5.27s4.71,3.76,7.64,1.64c2.86-1.05,4.83-3.46,7.17-5.3a33.23,33.23,0,0,0,6.9-9.76A27.81,27.81,0,0,0,239,338c-.34-2.59-5-.05-5.16-2.27.42-.25.89-.41,1.32-.67Z" transform="translate(-4.95 -10.36)" style="fill:red"/></g><g id="g3846"><path id="path3834" d="M120.25,246.28c-13.32,19.16-29.1,37.8-35.81,59.32-10.79,24.09-11.32,47.19-19.79,71.27-3,25.33-25.27,47.71-39.58,70.49-10.63,13-13.59,5.3-1.63-3.37,19.16-19.52,42.19-43.23,64.8-43,15.33-.95,31-.13,47.77-11.26,25.43-13.53,47.42-36.95,66.85-61.11,9-12.33,30.2-32.47,27.27-42.63-17.61,8.59-29.27-1.52-42.46-5-13.83-6.28-24.17-17.18-35.66-26.45-9.94-3.08-17.18-17.28-29.26-12.22l-2.5,3.94Z" transform="translate(-4.95 -10.36)" style="fill:#fc0"/><path id="path3047" d="M132.66,241.56c-15.93,20.13-36.55,39.65-44.09,63.6-3.85,12.26-.77,22.34-4.15,34.53-5.23,24.56-19.61,49.77-36,72.3-8,19.49-28.59,27.82-40.49,44.3-3.19,4.33-5,11.68.65,4.13,14.21-16.58,21.13-40,39.55-52.19,22.58-8.13,32.53,15.1,55.51,6,23-6.53,49.23-16.92,69.19-40.55,16.12-17.72,25-39.67,31.22-60.18,2.9-10.24,6.88-20.69,9.39-30.81,2.38-21.4-10.89-33.07-24.17-40.69-5.74-4.82-14.19-4.65-23.1-2.6-11.54,2-23.63,4.89-33.54,2.2Z" transform="translate(-4.95 -10.36)" style="fill:#ff0;opacity:0.5122950673103333;isolation:isolate"/><path id="path3054" d="M137.67,242.73c-10.56,14.25-25,28-28.91,44.73-3,9.35-5.35,18.74-6.15,27.72-1.14,8.67-.9,16.95-2.44,25.72-5.62,21.68-22.52,42.64-40.61,57-2,2.17-7.11,5.94-2.08,1,6.38-5.89,13.18-13.59,20.59-15.56,17.76-4.77,31.49,4.95,50-3.39,12.79-2.7,25-15.86,32.66-29,6.55-10.87,10.72-22.31,16.47-33.4,4.56-9.48,8.84-21.46,3.19-27.19-5.85-4.63-13.39-6.92-19.54-11.18-5.32-4.15-12.78-6.56-15.52-13.43-1.3-7,2.61-17.4-2.2-22.12-1.4-1.1-3.42-1.26-5.49-1Z" transform="translate(-4.95 -10.36)" style="fill:red;opacity:0.5122950673103333;isolation:isolate"/><path id="path3061" d="M138.25,248.88c-11.47,15.74-26.66,31.32-31.11,49.5-3.28,13.27-4.29,26.08-5.33,38.76-.48,12.57-2.83,26.62-11.49,39.63C81.92,391.4,71,405.15,58.21,415.9c7.76-6.62,14.68-14.69,22.88-20.6,6.7-5.58,13.45-7.44,20.41-13.19,11-7.51,23.32-17.81,34.13-16.4,20-.42,22-33,42.59-35.56,10.22-1.46,34.09.15,42.52-10.36,8.8-9.93,21,5.13,28.9-5.45,6.07-9.06,8.94-22.46.77-25-9.82-4.12-20.22-7.36-30.24-11.18-19.58-8.42-42.36-12.2-58-26.55-6.38-4.17-16-1.79-23.91-2.69Z" transform="translate(-4.95 -10.36)" style="fill:#f60;opacity:0.5122950673103333;isolation:isolate"/><path id="path3841" d="M178.92,264.23c-9,9.7-18.82,5.93-28.21,9.5-9.81,1.24-16.77,12.54-23.51,21.09-10.39,12.1-5.57,24-7.19,35.68-2.3,12-14.25,23-23.68,30.5-9,11-21.84,22.39-22.23,35.88-.95-.09,7.08-21.67,16.12-22.85,9.3-.66,13.17,12.37,25.54,2.24,11.11-5.8,20.35-16.54,30.36-25.21,12.56-12.87,24.39-27.44,33.53-42.86a151.67,151.67,0,0,0,10.18-34.43c1.18-10.14-17.63,2.65-16.21-6.14,1.75-1.22,3.56-2.12,5.3-3.4Z" transform="translate(-4.95 -10.36)" style="fill:red"/></g><g id="g3877"><path id="path3879" d="M161.56,333.76c-4.88,3.44-9.33,7.69-15.68,8.94-6.76,2.44-14.29,1.67-21.3,3.38-8-.09-13,6.07-19,9.68-3.14,2.84-.3,4.09,1.28.65,4.38-5.28,9.73-11.62,7.25-18.8-1.31-4.82-3.24-9.83-1.36-14.69,1.76-7.51,7.12-13.53,13-18.71,3.1-2.35,7.47-8.25,11.11-6.91-1,5.23,3.59,9.34,6.13,13.67,3.53,4.64,8.2,8.36,12.46,12.38,2.06,3.28,7.48,6.15,7.1,9.78l-1,.63Z" transform="translate(-4.95 -10.36)" style="fill:#fc0"/><path id="path3881" d="M161.8,330c-4.92,4.23-9.15,10-16.21,11.39-3.62.72-7.25-.66-10.9-.09-7.5.66-14.26,4.19-19.92,8.46-5.55,1.75-6.11,7.94-10.26,11-1.08.84-3.31,1.11-1.43-.37C107,356.62,114,355.38,116,350c.28-6.83-8.4-10.93-7.82-17.85-.3-7,.34-14.92,6-20.29,4.11-4.39,10.37-6.33,16.45-7.45,3-.5,6.06-1.34,9.12-1.72,6.77.11,12,4.8,15.91,9.32a11.15,11.15,0,0,1,3.3,7.43c.55,3.58.89,7.3,2.82,10.55Z" transform="translate(-4.95 -10.36)" style="fill:#ff0;opacity:0.5122950673103333;isolation:isolate"/><path id="path3883" d="M160.89,328.38c-3.57,2.77-6.57,6.78-11.63,7.35a35,35,0,0,1-8.44.82c-2.73,0-5.48-.4-8.19-.27-6.52.9-11.61,5.4-14.42,10.55-.5.56-1.2,2-.11.62,1.26-1.78,3.07-3.62,2.93-5.89-.31-5.44-5-10.19-4.17-15.73-.47-3.95,2.55-7.3,6-9.18,2.87-1.63,6.19-2.49,9.22-3.86,2.63-1.06,6.11-1.93,8.59.09,2.13,2.05,3.68,4.53,5.73,6.65,1.93,1.86,3.51,4.33,6.05,5.47,2.45.7,5.43-.12,7.49,1.6a3.27,3.27,0,0,1,.9,1.78Z" transform="translate(-4.95 -10.36)" style="fill:red;opacity:0.5122950673103333;isolation:isolate"/><path id="path3885" d="M158.81,328c-4,3-7.47,7.17-13,7.85a72.58,72.58,0,0,1-12.16.11c-4.07-.36-8.44-.19-11.79,2a23.89,23.89,0,0,0-9.45,8.59c1.35-2.19,3.27-4.06,4.34-6.42,1.13-1.89,1-4,2.18-5.93,1.3-3.18,3.38-6.67,1.77-10.16-2-6.31,8.52-5.62,7.16-12.06-.6-3.18-3.65-10.81-1.09-13.06,2.33-2.38-3.91-6.87-1.27-8.94,2.33-1.56,6.43-1.92,8.14.77,2.39,3.29,4.55,6.72,6.87,10,4.83,6.55,8.48,13.93,14.85,19.48,2,2.19,2.27,5.13,3.41,7.69Z" transform="translate(-4.95 -10.36)" style="fill:#f60;opacity:0.5122950673103333;isolation:isolate"/><path id="path3887" d="M149.47,314.42c-2.23,2.47,0,5.73-.14,8.56.63,3.07-2.34,4.81-4.44,6.6-2.87,2.8-7.28.79-10.95.83-3.69.24-6,3.58-7.5,6.27-2.65,2.41-5,6-9.43,5.58.13.31,6.37-1.36,5.8-4.18-.77-2.92-5.45-4.68-3.44-8.19.73-3.28,3.28-5.78,5.07-8.6A37.73,37.73,0,0,1,135,312.4a36.93,36.93,0,0,1,10.22-1.82c3.21,0,1,5.48,3.73,5.39.22-.51.32-1.05.56-1.55Z" transform="translate(-4.95 -10.36)" style="fill:red"/></g><path id="path3242" d="M345.1,13.52a35.49,35.49,0,0,0-8.66-.14c-1.24.13-2.51.31-3.8.54a58.07,58.07,0,0,0-8.12,2.15c-2.11.71-4.27,1.56-6.5,2.55a123.08,123.08,0,0,0-24.1,14.65c-1.07.77-2.15,1.57-3.23,2.38-.85.63-1.69,1.28-2.55,1.93s-1.67,1.28-2.51,1.94l-.46.36-1,.78-.14.1-.79.64c-.57.46-1.15.91-1.72,1.38l-.89.72-.08.06c-.48.39-.95.8-1.42,1.19l-1.46,1.19-1.61,1.38-1.11.94,0,0,0,0-1.15,1-.54.47a2,2,0,0,0-.21.2l-1.68,1.45-1.07.93-.38.35-.59.52-.09.08c-.82.73-1.65,1.45-2.48,2.2l-.3.27c-1.92,1.72-3.86,3.49-5.8,5.29l-.25.24-.32.29q-2.62,2.43-5.26,5c-1.36,1.29-2.72,2.61-4.08,3.93-.53.51-1,1-1.57,1.55l-.41.39c-1.7,1.67-3.41,3.35-5.11,5-1.51,1.51-3,3-4.53,4.57-.54.54-1.07,1.07-1.6,1.62l-.41.41c-1.95,2-3.91,4-5.85,6s-4.12,4.32-6.17,6.5c-.66.71-1.31,1.42-2,2.12q-2.25,2.42-4.48,4.84l-1,1.08q-2.64,2.87-5.25,5.74l-1.68,1.87-3.8,4.27q-1.6,1.8-3.2,3.61l-2.26,2.57L198,126.61c-1.16,1.34-2.29,2.68-3.43,4-.5.57-1,1.15-1.48,1.72-1.57,1.84-3.11,3.68-4.65,5.5-.35.42-.72.84-1.07,1.25-1.45,1.73-2.86,3.44-4.27,5.14l-1.28,1.56c-1.54,1.87-3.07,3.73-4.56,5.57l-.74.91-.46.57c-1.58,1.95-3.13,3.9-4.65,5.81s-3.14,4-4.65,5.91c-.82,1.05-1.61,2.07-2.4,3.11s-1.81,2.33-2.69,3.48l-.34.46c-.72.94-1.39,1.85-2.08,2.77a3.68,3.68,0,0,0-.45-.54,6,6,0,0,0-1-.79h0c-.19-.13-.38-.25-.59-.37l-.21-.13-.16-.08-.76-.38-.25-.11c-.51-.22-1.06-.41-1.64-.6l-.9-.28a33.8,33.8,0,0,0-3.37-.76,54.32,54.32,0,0,0-11.54-.69c-1.54.06-3.09.21-4.63.4l-.4,0c-1,.13-2,.3-3,.49l-.78.16-1.29.28-.07,0c-1,.23-1.9.48-2.82.77l-.89.32-.63.23-.58.21c-.45.18-.89.35-1.32.55-.66.33-1.29.69-1.93,1q-1.38.74-2.73,1.5l-1.39.8-.32.2c-.89.53-1.77,1.07-2.65,1.63l-.57.37c-.79.51-1.59,1-2.37,1.55l-.06,0c-.8.54-1.6,1.1-2.38,1.66l-.92.67c-.7.52-1.4,1.06-2.09,1.6l-.77.6c-.6.48-1.21,1-1.8,1.45l-.48.39c-.6.5-1.19,1-1.78,1.54s-1,.84-1.43,1.27l-.3.27c-1.77,1.62-3.51,3.34-5.23,5.12l-1,1-.57.62-1.07,1.18c-.75.82-1.5,1.65-2.24,2.51l-.62.74c-.3.35-.6.72-.9,1.08-.55.66-1.08,1.32-1.63,2-1.28,1.6-2.57,3.26-3.84,5l-.28.39c-.44.59-.87,1.19-1.31,1.8a.86.86,0,0,0-.07.1l0,.05c-.47.65-.94,1.32-1.41,2l-1.35,2a.56.56,0,0,1,0,.08l-.65,1L75,217.46c-.35.52-.68,1-1,1.57-.13.19-.24.38-.37.58-.47.73-.94,1.45-1.41,2.2h0c-.06.27-.11.54-.15.8v0c0,.22-.07.45-.1.67s0,.44,0,.67c0,0,0,.05,0,.07s0,.14,0,.21a.53.53,0,0,0,0,.13h0s0,0,0,.06,0,.14,0,.21,0,.24,0,.36q0,.56,0,1.11v.08h0l.06.55a2.11,2.11,0,0,0,0,.25.52.52,0,0,1,0,.11c0,.26.08.52.12.78h0c0,.3.09.58.16.87s.14.59.22.88l.24.81s0,.1,0,.15c.08.25.16.5.25.74a1.66,1.66,0,0,1,.06.16l0,.06c.08.21.16.43.25.65,0,0,0,.05,0,.07.12.3.26.58.39.88s.38.8.59,1.2l.12.24.15.28v0c.08.13.15.26.22.39.41.71.86,1.4,1.33,2.09l0,0c.2.28.37.55.58.83l.16.21.6.78.45.56c.08.09.15.19.23.29l.47.54c.25.28.49.57.75.84s.74.76,1.12,1.14l.06.07.58.56.67.63,0,.05c1,.91,2,1.79,3.14,2.62.56.42,1.13.84,1.71,1.24l.06,0s0,0,0,0l.84.55c.27.18.53.36.81.53l.17.12c.17.11.35.2.52.3l.22.13.45.27.15.08.28.15.27.18h0l.57.31,1.19.61.3.14.08,0c.49.24,1,.45,1.47.66l.63.29.22.09,1.47.59c.24.09.49.16.73.24l.2.07,1,.33c1,.31,2,.57,3,.78l.35.06.13,0,.51.08q.5.09,1,.15l.49.07c.5.06,1,.11,1.47.14l1,.06h1.17l.75,0c.16,0,.32,0,.47,0l.46,0s0,0,0,0c.3,0,.61-.07.91-.12l.24,0c.23,0,.45-.07.68-.12h.11l.78-.18c.3-.07.6-.15.89-.24l.22-.07.08,0,.08,0,.19-.06.3-.09a16.24,16.24,0,0,0,1.66-.71,0,0,0,0,0,0,0,14.49,14.49,0,0,0,1.58-.89c1.88-4.49,3.51-8.4,5-12,.13-.29.24-.56.36-.85.06-.14.12-.27.17-.4l1-2.19c0,.38-.06.77-.09,1.15a1.49,1.49,0,0,1,0,.21c0,.6-.06,1.2-.07,1.8v.25c0,.58,0,1.14,0,1.72,0,.31,0,.61,0,.92s.06.85.09,1.27a1.36,1.36,0,0,1,0,.2c.06.64.11,1.27.2,1.91a.44.44,0,0,0,0,.1c.17,1.25.4,2.5.68,3.73,0,.15.07.3.1.45.14.6.32,1.2.49,1.8a.79.79,0,0,0,0,.13,57.64,57.64,0,0,0,7.31,15.66l.16.23-.07.09-.82,1.05c-.13.16-.24.33-.37.49-.48.63-1,1.26-1.45,1.91s-1,1.35-1.49,2c-.19.26-.37.53-.56.8-.5.69-1,1.38-1.48,2.09l-.19.26c-.23.32-.44.65-.67,1l-.09.11-1,1.41s0,0,0,0l-.24.37,0,0-.09.12-1.29,2-.16.24v0c-.41.63-.82,1.28-1.22,1.92,0,0,0,0,0,0L120,286.4l-.25.41c-.27.45-.56.9-.84,1.36-.13.23-.26.46-.4.69h0c-.46.78-.94,1.56-1.4,2.36a21.86,21.86,0,0,0-.35,2.9v0c0,.48,0,1,0,1.46a24.71,24.71,0,0,0,.22,3,2.13,2.13,0,0,0,0,.25c0,.36.11.71.17,1.07l0,.17c.08.43.18.86.28,1.3l.12.45a1.16,1.16,0,0,1,0,.18l.27.94a.8.8,0,0,1,0,.15c.2.67.44,1.34.69,2,.11.3.22.6.35.9v0c.4,1,.86,1.94,1.36,2.91.24.48.5,1,.77,1.44.55,1,1.14,1.9,1.76,2.84.94,1.4,2,2.78,3,4.11h0c.37.44.74.88,1.12,1.31h0l.47.52s0,0,0,0l.65.7.11.13c.17.18.34.36.52.53.61.64,1.25,1.27,1.9,1.88.86.81,1.75,1.61,2.66,2.37a58.77,58.77,0,0,0,11.83,7.69,49.11,49.11,0,0,0,5.19,2.16,39.64,39.64,0,0,0,8.55,2.05,29.66,29.66,0,0,0,3.37.23A23.29,23.29,0,0,0,176,333c.74-.85,1.46-1.71,2.17-2.56q.73-.87,1.44-1.74c.48-.58.94-1.16,1.4-1.74l1.12-1.4.25-.32q1.76-2.25,3.37-4.48l.47-.66c.42-.58.82-1.16,1.22-1.74l.53-.77c.2-.3.41-.59.61-.88q1.51-2.24,2.9-4.46c10.11,3.12,20.56,3.72,30.61-.53-1.21,1.11-2.44,2.21-3.76,3.41l-5.54,5c-.07.3-.14.6-.19.9a16.59,16.59,0,0,0-.23,3.15,2.09,2.09,0,0,0,0,.25c0,.07,0,.14,0,.22s0,.13,0,.2c0,.24,0,.48,0,.72.06.61.15,1.21.27,1.82v0c.06.3.12.59.19.89s.17.61.26.92.17.61.28.91.21.6.33.9.2.52.31.78a28.85,28.85,0,0,0,1.9,3.65,0,0,0,0,1,0,0,35.48,35.48,0,0,0,2.35,3.39h0c.21.27.42.56.65.83h0c.23.27.46.55.69.81.71.81,1.44,1.59,2.22,2.35a45.45,45.45,0,0,0,5,4.23c.59.43,1.18.85,1.79,1.25,1.22.8,2.48,1.54,3.75,2.21h0a38.78,38.78,0,0,0,6.79,2.83c.65.2,1.32.38,2,.53a28.17,28.17,0,0,0,3.87.65c.63.06,1.26.08,1.88.09a20.84,20.84,0,0,0,3.65-.28c.59-.11,1.16-.23,1.73-.39a15.22,15.22,0,0,0,4-1.76c.57-.72,1.14-1.43,1.69-2.14l.36-.47c.39-.5.76-1,1.13-1.5s.56-.71.83-1.07.46-.63.7-.94l1.18-1.63.28-.38,1.42-2,.11-.15h0c12.48-17.82,19.12-34.1,21.67-52.88,1.08-12.85-6.24-30.09-12.09-34,25.41-37.71,55.21-92.67,75.48-140.64.59-1.4,1.19-2.8,1.76-4.18.3-.72.59-1.43.88-2.15l.82-2c.34-.84.68-1.68,1-2.52.22-.53.42-1.06.63-1.59.76-1.92,1.51-3.8,2.23-5.68.31-.79.6-1.58.9-2.37.16-.41.3-.81.46-1.22.34-.91.68-1.82,1-2.73l.3-.8q1.29-3.53,2.48-6.93c.35-1,.68-1.92,1-2.88.65-1.9,1.24-3.79,1.78-5.64s1-3.68,1.42-5.47c.21-.9.41-1.78.59-2.66.55-2.65,1-5.2,1.26-7.69.1-.83.2-1.63.27-2.44.22-2.42.33-4.77.32-7v0c0-1.5-.06-3-.16-4.38C367.3,32,363,22.86,356.3,18a24.69,24.69,0,0,0-11.2-4.43Z" transform="translate(-4.95 -10.36)" style="fill:#1a1a1a;stroke:#1a1a1a;stroke-width:5.651082992553711px;fill-rule:evenodd"/><g id="g3155"><path id="rect3011" d="M356.3,18c-12.61-9.25-34.92-5.53-62.38,15.32C233.13,77,140.63,191.65,133.66,214.49c-9.63,31,6.67,61.85,31,78.48.74.5,1.49,1,2.24,1.48a73.53,73.53,0,0,0,19.26,8.71c.84.24,1.68.46,2.53.67,17.86,4.35,33.53.1,55-10.81,31.33-29.35,92.78-138,118-210.76,11.34-31,7.28-55.06-5.34-64.3Z" transform="translate(-4.95 -10.36)" style="fill:#3771c8;fill-rule:evenodd"/><path id="path3040" d="M250.52,285.51c-25.35,1.61-51.89-5.57-72.19-19.93S144.41,230.35,137.48,206c-1.7,2.72-3.41,5.46-5.12,8.25-23.87,33.73,4.09,65.32,28.74,82.21.74.51,1.51,1,2.27,1.5,23.74,15.88,55.56,30.1,80.17-4.68,2.24-2.72,5-5.28,7-7.72Z" transform="translate(-4.95 -10.36)" style="fill:#500;fill-rule:evenodd"/><path id="path3964" d="M356.3,18c-12.61-9.24-34.92-5.52-62.38,15.33A331.32,331.32,0,0,0,266.71,55.5a75.05,75.05,0,0,0,82.47,58.92c4.73-11.21,8.95-22,12.46-32.16C373,51.26,368.92,27.2,356.3,18Z" transform="translate(-4.95 -10.36)" style="fill:gray;fill-rule:evenodd"/><path id="path3981" d="M356.3,18c-12.61-9.24-34.92-5.52-62.38,15.33C238.6,73.1,157,171.58,137.54,206.2l-.06-.25c-1.71,2.73-3.42,5.46-5.13,8.25-16.76,23.69-7.94,46.31,7.33,63.54C153.9,243.22,176,207.68,204,163.88,258.9,84.05,319,20.51,356.3,18Z" transform="translate(-4.95 -10.36)" style="fill:#1c2224;fill-rule:evenodd;opacity:0.36885249614715576;isolation:isolate"/><path id="path3016" d="M206.68,227c-6.37-4.19-16-4-26.78,2.51-24.75,13.8-43.55,28.51-62.82,61.75-3,15.39,11.43,33.13,28.09,41.23a49.05,49.05,0,0,0,5.18,2.17c9.14,3.23,18.48,3.3,25.69-1.68.74-.85,1.46-1.71,2.17-2.55,22-26.15,29.15-49.36,35.16-77.23,3.19-12.27.1-21.74-6.69-26.2Z" transform="translate(-4.95 -10.36)" style="fill:#a00;fill-rule:evenodd"/><path id="path3018" d="M138.35,206.17c-9.37,17.34-13.19,26.49-21.42,46.1C100.47,262.84,68,240.19,72.18,221.82c15-23.85,29.76-38.4,49.81-48.69,15.45-6.94,42.9-2.75,36.92,4.86-9.1,11.6-13.71,16.95-20.56,28.18Z" transform="translate(-4.95 -10.36)" style="fill:#a00;fill-rule:evenodd"/><path id="path3026" d="M249.19,284.61c-13.24,14.6-20.6,21.25-36.36,35.53-4.48,19,27.68,42.14,43.61,32.07,17.51-22,26.31-40.83,29.35-63.15,1.41-16.89-11.68-41.38-16.87-33.21-7.91,12.44-11.42,18.56-19.73,28.76Z" transform="translate(-4.95 -10.36)" style="fill:#a00;fill-rule:evenodd"/><path id="path3935" d="M122,240.28A44.58,44.58,0,0,1,79.3,211.15c-2.38,3.33-4.74,6.89-7.12,10.67-4.19,18.37,28.3,41,44.76,30.46C118.82,247.79,120.45,243.89,122,240.28Z" transform="translate(-4.95 -10.36)" style="fill:#500;fill-rule:evenodd"/><path id="path3939" d="M222.46,311.38A44.56,44.56,0,0,0,264.13,342c-2.35,3.36-4.92,6.77-7.69,10.26-15.93,10.07-48.1-13-43.61-32.07C216.43,316.87,219.57,314,222.46,311.38Z" transform="translate(-4.95 -10.36)" style="fill:#500;fill-rule:evenodd"/><path id="path3943" d="M128.25,273.93a204.39,204.39,0,0,0-11.17,17.31c-3,15.39,11.43,33.13,28.09,41.23a49.2,49.2,0,0,0,5.19,2.17c9.13,3.22,18.48,3.3,25.68-1.68.74-.85,1.46-1.71,2.17-2.55a164.2,164.2,0,0,0,10.41-13.73,63.14,63.14,0,0,1-60.37-42.75Z" transform="translate(-4.95 -10.36)" style="fill:#500;fill-rule:evenodd"/><g id="g4042"><path id="path3970" d="M243.58,214.84a21.8,21.8,0,1,1-5.2-30.39A21.81,21.81,0,0,1,243.58,214.84Z" transform="translate(-4.95 -10.36)" style="fill:#333"/><g id="text3972"><path id="path3977" d="M213.65,206.41l4.86,3.44,11.88-16.79-6-2.68,1.92-2.72,6,2.67,3,2.11-13.8,19.5,4.86,3.44-1.77,2.51-12.68-9,1.78-2.51" transform="translate(-4.95 -10.36)" style="fill:#3771c8"/></g></g><path id="path3014" d="M305.39,169c-13.49,19.06-41.59,22.36-62.78,7.37s-27.41-42.59-13.93-61.65,41.6-22.36,62.78-7.37S318.88,150,305.39,169Z" transform="translate(-4.95 -10.36)" style="fill:#333;fill-rule:evenodd"/><path id="path4033" d="M296.3,163.23c-10.11,14.29-30.72,17.09-46,6.25s-19.52-31.2-9.41-45.5,30.73-17.09,46-6.25,19.53,31.2,9.41,45.5Z" transform="translate(-4.95 -10.36)" style="fill:#1a1a1a;fill-rule:evenodd"/><path id="path4035" d="M292.67,160.53c-9.89,14-30.32,16.52-45.63,5.68s-19.71-31-9.82-44.92,30.32-16.52,45.63-5.68,19.71,31,9.82,44.92Z" transform="translate(-4.95 -10.36)" style="fill:#666;fill-rule:evenodd"/><path id="path3022" d="M294.47,161.91c-9.75,13.78-30.07,16.16-45.38,5.33S229.27,136.45,239,122.67s30.06-16.16,45.38-5.33,19.82,30.79,10.07,44.57Z" transform="translate(-4.95 -10.36)" style="fill:#80b3ff;fill-rule:evenodd"/><path id="path3889" d="M293.51,132.28c-2.07-9.68-14.94-3.25-11.79,5,.54,8,9.32,18.68.09,24.72-3.71.91-7.36,7.86-1,6.14,6.74-5,11.36-13,14.43-20.62C296.3,142.48,296.23,136.8,293.51,132.28Z" transform="translate(-4.95 -10.36)" style="fill:#d5e5ff"/><path id="path3899" d="M252.5,140.32c-1.75-3.13-2.31-7.43-6.27-8.67-3.62-.45-5.48,4-5.69,7a10.94,10.94,0,0,0,4.44,9.91c2.27,1.93,4.86,3.4,7.3,5.09,3.75-.5,4-5.41,2.71-8.18-.67-1.79-1.67-3.44-2.49-5.16Z" transform="translate(-4.95 -10.36)" style="fill:#d5e5ff"/><path id="path4008" d="M205.24,226.13c-6.35-3.27-15.37-2.63-25.34,3.36-20,11.13-36.06,22.87-51.65,44.44-.47.65-.93,1.31-1.4,2s-.86,1.22-1.29,1.85l-.3.42-1,1.42-.25.38-.1.15c-.44.65-.87,1.31-1.3,2l-.16.26c-.41.63-.81,1.29-1.22,1.94s-.93,1.48-1.39,2.24-.94,1.53-1.4,2.32-.93,1.56-1.4,2.37c-.09.48-.16.95-.22,1.44a22,22,0,0,0-.17,2.93,24.56,24.56,0,0,0,.22,3,30,30,0,0,0,2,7.43c.4,1,.86,1.95,1.35,2.92q.38.72.78,1.44c.54.95,1.13,1.9,1.76,2.84a50.4,50.4,0,0,0,4.18,5.43h0c.57.64,1.17,1.28,1.77,1.9,2.85-16.11,10.26-33.82,22-50.46,15.71-22.19,35.78-37.7,54.43-43.95Z" transform="translate(-4.95 -10.36)" style="fill:#2b0000;fill-rule:evenodd;opacity:0.381147563457489;isolation:isolate"/><path id="path4016" d="M157.84,173.05c-5.92-4.06-24.28-5.13-35.86.08-16.87,8.66-30,20.32-42.68,38l-.07.1c-.48.67-1,1.37-1.43,2.06-.09.13-.19.25-.28.39-.38.54-.75,1.1-1.13,1.66s-.94,1.39-1.4,2.1c-.35.52-.69,1-1,1.57l-1.78,2.79a15.85,15.85,0,0,0-.12,6.14c0,.29.09.58.16.87a21.23,21.23,0,0,0,1.51,4.4q.33.72.72,1.44l.15.28a28.57,28.57,0,0,0,1.57,2.54h0a35.7,35.7,0,0,0,3.24,4.05,44.56,44.56,0,0,0,5.6,5.07c8.14,6.18,18.59,9.82,26.9,7.78a16.55,16.55,0,0,0,4.23-1.66l.78-.46c1.88-4.49,3.51-8.39,5-12a359.6,359.6,0,0,1,16.35-34.11c6.86-11.23,11.47-16.58,20.57-28.18,1.5-1.91.9-3.58-1.07-4.94Z" transform="translate(-4.95 -10.36)" style="fill:#2a0000;fill-opacity:0.3803921639919281;fill-rule:evenodd"/><path id="path4023" d="M258.38,272.28c-2.66,3.92-5.42,7.72-9.19,12.34a360.64,360.64,0,0,1-26.73,26.76l-4.08,3.73-5.55,5c-.07.29-.13.59-.18.89a16.84,16.84,0,0,0-.16,4.54q0,.46.12.93c0,.3.08.6.14.9,0,0,0,0,0,0,.06.3.11.59.19.89s.17.61.26.92.16.6.26.9h0c.1.3.2.6.32.9.2.53.43,1.05.67,1.58,7.08-5.08,15.32-13,23.17-22.65,11.75-14.46,19.46-28.93,20.72-37.68Z" transform="translate(-4.95 -10.36)" style="fill:#290000;fill-opacity:0.14509804546833038;fill-rule:evenodd"/><path id="path4031" d="M362.39,55.87c-2.28,10.92-2.9,18-21.07,31.33C356.93,69.82,355.9,29.08,359,32.62,364.42,34.35,364.77,44.45,362.39,55.87Z" transform="translate(-4.95 -10.36)" style="fill:#fff;opacity:0.21311478316783905;isolation:isolate"/><path id="path4039" d="M288.53,105.44c-20.78-12.73-47-8.9-59.84,9.29s-7.77,44.2,11.18,59.56c-15.2-16.41-18.59-39.77-6.79-56.44S268,96.59,288.53,105.44Z" transform="translate(-4.95 -10.36)" style="fill:#2b2b2b;fill-rule:evenodd"/><path id="path4148" d="M280.14,279.81c-1,5.94-3.59,10.45-5.79,10.08s-3.17-5.48-2.17-11.42,3.6-10.45,5.8-10.08S281.15,273.88,280.14,279.81Z" transform="translate(-4.95 -10.36)" style="fill:#fff;opacity:0.21311478316783905;isolation:isolate"/><path id="path4152" d="M202.29,249.94c-5.06,6.59-11.31,10.46-13.94,8.64s-.65-8.64,4.42-15.23,11.31-10.46,13.94-8.64S207.36,243.35,202.29,249.94Z" transform="translate(-4.95 -10.36)" style="fill:#fff;opacity:0.21311478316783905;isolation:isolate"/></g></g></g></svg>