<svg id="Calque_1" data-name="Calque 1" xmlns="http://www.w3.org/2000/svg" viewBox="0 0 356.9 471.29">
  <path id="mouse" d="M356.88,195.5c0-27,0-54-.64-81-.48-20.29-1.59-40.39-13.44-57.72-21.71-31.74-62.48-41.14-97.87-48C192.24-1.37,135.66-6.66,85.09,15.31c-41,17.83-75,51.83-84.67,96.39-2.5,11.56,6.73,19.23,15.79,19.83h0A740.78,740.78,0,0,0,13.94,273c3.54,43,4.89,95.77,28.61,133.52C67,445.4,115.1,456,157.23,463.79c42.87,7.88,94.42,15.21,133.53-9.33,34.8-21.83,51.74-62.12,58.34-101.16C357.81,301.8,356.87,247.6,356.88,195.5ZM336.19,318.33c-2.89,38.81-10.71,79.81-41.1,107-32.77,29.36-81.41,22-121.16,14.94C138.74,434,89.55,426.92,68,394.8c-24.12-36-22.42-90.93-25.21-132.44-3.33-49.79-4-99.5-3.25-149.37a9.49,9.49,0,0,0-4.11-8C60.75,36.08,148.91,24.51,214.2,32.24h0c33.16,3.94,78,8.3,104.19,31.56,14.07,12.5,17.62,29.77,18.89,47.78,1.6,23,2.37,46.15,2.61,69.18C340.39,226.55,339.61,272.67,336.19,318.33Z" transform="translate(0 0)"/>
  <g id="arrows">
    <path d="M227.84,271.2h0c-6.47,9.22-12.23,18.91-18.18,28.48-2.86,4.59-5.29,10.42-8.93,14.32-5.9,6.35-6,5.62-13.57,1.81-15.23-7.7-27.07-28.93-45.19-28.85a2.28,2.28,0,0,0-2.26,2.25c1.33,12.45,12.35,20,20.86,28.57s19.52,24.41,32.52,26.62c10.95,1.88,19.08-5.25,25.18-13.38,11.13-14.83,21.33-31.52,30.54-47.59C256.63,269.68,236.68,258.6,227.84,271.2Z" transform="translate(0 0)"/>
    <path d="M223.41,353.14h0c-8.17,7.52-15.2,15.94-22.93,23.87-1.54,1.59-9.21,11.15-11.73,10.88-.19,0-6.45-7-7-7.45a93.91,93.91,0,0,0-33.34-18.71,6.79,6.79,0,0,0-6.7,1.77,6.53,6.53,0,0,0-1.91,4c-.84,6.95,9,11.07,13.52,14.54,9.26,7.07,14.19,16.67,22.48,24.08,22.5,20.06,50.65-23.26,64.71-35.81C252.18,359.87,234.91,342.54,223.41,353.14Z" transform="translate(0 0)"/>
  </g>
  <path id="button" d="M216.92,201.14h0c26.9-22.39,28.76-63.72,21.83-95.57-7.66-35.15-40.43-42.71-72-37.33a11.29,11.29,0,0,0-9.5,9.13,4.29,4.29,0,0,0-5.11,1.6c-10.23,14.44-8.43,39.12-10.21,56.27s-5.28,36.1,2.22,52.58C157.21,216.45,194,220.14,216.92,201.14ZM163.85,93.73a12.24,12.24,0,0,0,6.6,1.67h0c8.48-.29,18.17-2.21,26.5.2,12.89,3.73,14.7,14.91,16,26.78,2.15,20.21,2.41,51-19.44,61.4-28.68,13.71-29.88-23.92-29.9-41.8C163.56,127.87,166.35,109.31,163.85,93.73Z" transform="translate(0 0)"/>
</svg>
