<?xml version="1.0" standalone="no"?><svg xmlns="http://www.w3.org/2000/svg" viewBox="0 0 1440 320"><path fill="#393E46" fill-opacity="1" d="M0,256L30,229.3C60,203,120,149,180,149.3C240,149,300,203,360,224C420,245,480,235,540,202.7C600,171,660,117,720,85.3C780,53,840,43,900,74.7C960,107,1020,181,1080,218.7C1140,256,1200,256,1260,229.3C1320,203,1380,149,1410,122.7L1440,96L1440,0L1410,0C1380,0,1320,0,1260,0C1200,0,1140,0,1080,0C1020,0,960,0,900,0C840,0,780,0,720,0C660,0,600,0,540,0C480,0,420,0,360,0C300,0,240,0,180,0C120,0,60,0,30,0L0,0Z"></path></svg>